# Blender v3.6.1 OBJ File: 'MoreRocksHell.blend'
# www.blender.org
mtllib MoreRocksHell3.mtl
v 2.165928 2.108942 2.306760
v 2.513364 -1.015720 1.828528
v 2.214726 2.214987 5.184244
v 2.535022 -1.091603 5.596307
v 0.047829 2.435441 2.064250
v 0.065086 -0.748671 2.223429
v -0.205044 2.728847 5.667158
v -0.089249 -0.885510 5.366486
v 1.815869 2.376488 5.320600
v 1.236436 2.711347 5.622983
v 0.437932 3.094395 6.095836
v 0.411569 -1.247749 5.743732
v 1.197310 -1.660472 6.252646
v 1.994616 -1.300615 5.783982
v 2.830299 -1.502532 4.916533
v 3.291723 -2.220746 3.715590
v 2.931992 -1.635611 2.336740
v 2.312404 1.641470 5.268328
v 2.530972 0.841313 5.603012
v 2.709216 -0.253058 5.884973
v 0.509609 2.657727 1.784777
v 1.250433 2.792360 1.653878
v 1.859963 2.388234 2.019805
v 1.966149 -1.340148 1.514685
v 1.182127 -1.288355 1.657025
v 0.478501 -1.110747 1.860601
v 2.214387 1.565506 2.241024
v 2.366181 0.840552 2.030399
v 2.557831 -0.138474 1.774459
v 2.511447 2.610876 2.637070
v 3.025537 3.441993 3.619980
v 2.594608 2.759494 4.785925
v -0.159022 1.819401 1.686264
v -0.162464 0.767052 1.782189
v -0.033859 -0.114741 2.020953
v 0.074607 -0.773529 2.871669
v -0.062934 -0.913689 3.666083
v -0.084919 -0.943847 4.575257
v -0.424465 3.057986 4.877628
v -0.565967 3.306640 3.676394
v -0.296375 2.960938 2.526680
v -0.108272 -0.145117 5.461272
v -0.266886 0.734428 5.699200
v -0.340415 1.840623 5.854811
v 0.509861 -1.363394 2.733544
v 1.202079 -1.595569 2.650145
v 2.006006 -1.925508 2.492792
v 0.351264 -1.821717 3.632043
v 1.185564 -2.238808 3.650441
v 2.135685 -2.451122 3.660660
v 0.323832 -1.852339 4.823937
v 1.160528 -2.831929 5.124802
v 2.116581 -2.114635 4.970508
v -0.715546 1.905405 4.852803
v -0.875603 1.988481 3.710838
v -0.890149 1.988465 2.390780
v -0.456128 0.776312 4.695161
v -0.566283 0.769487 3.700105
v -0.587035 0.719610 2.623535
v -0.248114 -0.109067 4.566866
v -0.211577 -0.094528 3.687968
v -0.185174 -0.098146 2.826563
v 3.122754 -0.357541 2.481426
v 3.023317 0.846450 2.513971
v 2.727262 1.769485 2.720723
v 3.748682 -0.638513 3.641340
v 3.653260 0.848352 3.626558
v 3.417949 2.127998 3.615966
v 3.351385 -0.512584 5.044966
v 3.455824 0.871094 5.143788
v 3.033783 1.975861 4.905014
v 1.980379 -0.218603 6.219751
v 1.818359 0.762069 5.458550
v 1.723679 1.535634 5.189772
v 1.206199 -0.297529 6.335377
v 1.239493 0.833999 6.121521
v 1.233520 1.759558 5.841068
v 0.448813 -0.244158 6.051371
v 0.428558 0.782679 6.292294
v 0.457089 1.880283 6.282293
v 1.949710 3.142455 2.604478
v 1.212470 3.320895 2.594154
v 0.428061 3.348226 2.550458
v 2.044068 3.570210 3.676983
v 1.220792 3.951135 3.648442
v 0.328362 3.707706 3.674377
v 2.018775 3.361304 4.897820
v 1.234975 3.690766 4.952840
v 0.299767 3.864490 4.988476
v 0.426922 -0.253902 1.330400
v 0.429692 0.822222 1.195844
v 0.531554 1.749196 1.608024
v 1.206170 -0.314446 1.044230
v 1.231854 0.821118 1.166930
v 1.251648 1.819649 1.305673
v 1.965313 -0.176803 1.289630
v 1.839689 0.809731 1.735362
v 1.815051 1.612909 1.894663
vt 0.064858 0.387189
vt 0.100622 0.386008
vt 0.085638 0.402419
vt 0.040939 0.368853
vt 0.077614 0.363523
vt 0.202694 0.016727
vt 0.227364 0.037235
vt 0.197269 0.037578
vt 0.172277 0.960548
vt 0.194274 0.923200
vt 0.203816 0.961859
vt 0.161327 0.067449
vt 0.176274 0.046743
vt 0.177846 0.066750
vt 0.078960 0.417291
vt 0.056560 0.404272
vt 0.011690 0.386742
vt 0.030706 0.391978
vt 0.007103 0.361625
vt 0.048822 0.343576
vt 0.160642 0.932296
vt 0.189111 0.893169
vt 0.211261 0.894890
vt 0.220334 0.913990
vt 0.237954 0.941934
vt 0.270000 0.030876
vt 0.252414 0.050976
vt 0.240032 0.066216
vt 0.219823 0.064692
vt 0.196886 0.065107
vt 0.227520 0.142558
vt 0.197236 0.112765
vt 0.223322 0.111578
vt 0.197511 0.146577
vt 0.169610 0.111756
vt 0.219942 0.087226
vt 0.176098 0.086607
vt 0.197848 0.087074
vt 0.253142 0.156269
vt 0.255461 0.136239
vt 0.232124 0.167091
vt 0.028050 0.543339
vt 0.028325 0.508658
vt 0.048570 0.517532
vt 0.019873 0.561123
vt 0.003131 0.528212
vt 0.070479 0.491296
vt 0.100622 0.465288
vt 0.096879 0.499399
vt 0.156596 0.084233
vt 0.243594 0.084605
vt 0.250090 0.108189
vt 0.773515 0.261663
vt 0.791842 0.222113
vt 0.807716 0.257535
vt 0.761554 0.232438
vt 0.777198 0.191183
vt 0.836654 0.238293
vt 0.806324 0.179820
vt 0.825821 0.204646
vt 0.760702 0.282670
vt 0.781634 0.293059
vt 0.750954 0.262539
vt 0.745856 0.235991
vt 0.755161 0.207465
vt 0.420141 0.146960
vt 0.434055 0.166514
vt 0.417721 0.158751
vt 0.743323 0.187788
vt 0.147210 0.110476
vt 0.112757 0.115760
vt 0.126890 0.094091
vt 0.096667 0.100258
vt 0.099084 0.085454
vt 0.104279 0.061965
vt 0.139461 0.063638
vt 0.107990 0.032379
vt 0.134748 0.032885
vt 0.192893 0.864117
vt 0.154228 0.858924
vt 0.150695 0.891982
vt 0.822213 0.293059
vt 0.080464 0.032722
vt 0.055809 0.061819
vt 0.052315 0.033100
vt 0.079629 0.064997
vt 0.058022 0.086656
vt 0.026106 0.062386
vt 0.026926 0.041014
vt 0.028363 0.088029
vt 0.237954 0.899805
vt 0.078470 0.086553
vt 0.081996 0.104310
vt 0.060264 0.111361
vt 0.008896 0.117844
vt 0.002176 0.095574
vt 0.004369 0.071139
vt 0.262231 0.075108
vt 0.026068 0.021202
vt 0.050935 0.002213
vt 0.081996 0.012291
vt 0.062081 0.587571
vt 0.101155 0.596074
vt 0.074246 0.609792
vt 0.046670 0.564546
vt 0.089319 0.571380
vt 0.111244 0.552248
vt 0.121339 0.576977
vt 0.070086 0.544245
vt 0.108502 0.366678
vt 0.111649 0.395282
vt 0.102611 0.380883
vt 0.039033 0.603355
vt 0.052914 0.616506
vt 0.025901 0.579121
vt 0.071099 0.503795
vt 0.096133 0.523361
vt 0.031481 0.149768
vt 0.029948 0.118609
vt 0.064667 0.141844
vt 0.092407 0.131190
vt 0.099706 0.149768
vt 0.134691 0.142939
vt 0.079475 0.626646
vt 0.117259 0.626646
vt 0.069203 0.441708
vt 0.031713 0.453099
vt 0.042720 0.430794
vt 0.048227 0.479461
vt 0.057960 0.465788
vt 0.018195 0.418895
vt 0.130952 0.327652
vt 0.116444 0.351870
vt 0.113209 0.330767
vt 0.091113 0.427869
vt 0.081283 0.468129
vt 0.087017 0.444954
vt 0.012632 0.583143
vt 0.001793 0.561069
vt 0.041276 0.497181
vt 0.022311 0.472438
vt 0.136066 0.353173
vt 0.119803 0.371756
vt 0.105095 0.352693
vt 0.428027 0.331174
vt 0.414959 0.320068
vt 0.428027 0.311888
vt 0.361002 0.144411
vt 0.380007 0.172083
vt 0.364548 0.167795
vt 0.239021 0.002585
vt 0.154280 0.053291
vt 0.009351 0.329190
vt 0.163816 0.146698
vt 0.201019 0.174929
vt 0.151168 0.107467
vt 0.742509 0.216079
vt 0.434055 0.144329
vt 0.761492 0.158847
vt 0.221702 0.878127
vt 0.270000 0.100539
vt 0.005458 0.135470
vt 0.015490 0.437156
vt 0.015104 0.489405
vt 0.136066 0.380090
vt 0.411916 0.335068
vt 0.380007 0.152283
vt 0.001487 0.405114
vn -0.3770 -0.8436 -0.3823
vn -0.6819 -0.6896 -0.2441
vn -0.6005 -0.7416 -0.2991
vn -0.0358 -0.8676 -0.4960
vn -0.2997 -0.9115 -0.2818
vn -0.7916 -0.5973 0.1290
vn 0.5466 -0.7660 0.3382
vn -0.1004 -0.9712 0.2162
vn -0.8665 -0.4365 -0.2422
vn -0.8911 -0.4431 -0.0979
vn -0.5572 -0.6742 -0.4847
vn -0.2887 -0.7392 -0.6085
vn 0.6251 -0.2823 -0.7277
vn 0.2718 -0.6037 -0.7495
vn 0.5563 -0.5250 -0.6441
vn 0.0451 -0.9983 -0.0358
vn 0.6697 -0.5619 0.4855
vn 0.5488 -0.4533 0.7024
vn 0.4886 -0.4102 0.7701
vn -0.0460 -0.4341 0.8997
vn -0.6489 -0.3931 0.6514
vn -0.8845 -0.2802 0.3730
vn -0.9517 -0.3068 -0.0096
vn -0.9386 -0.3130 -0.1453
vn -0.9741 0.0101 0.2258
vn -0.9525 -0.3010 0.0463
vn -0.9616 -0.2387 0.1357
vn -0.9985 0.0378 0.0389
vn -0.9284 -0.3061 -0.2106
vn -0.9742 -0.2193 0.0527
vn -0.9223 -0.3815 -0.0621
vn -0.9520 -0.3004 -0.0584
vn -0.7495 0.3386 0.5689
vn -0.7591 0.0732 0.6468
vn -0.8377 0.4862 0.2485
vn -0.5959 0.6033 -0.5301
vn -0.7571 0.6501 -0.0649
vn -0.4512 0.4594 -0.7651
vn -0.9008 0.1552 -0.4054
vn -0.4845 0.2843 -0.8273
vn -0.8798 -0.2870 -0.3790
vn -0.8903 -0.1833 0.4168
vn -0.8413 -0.2067 0.4995
vn 0.8319 0.0027 -0.5549
vn 0.9813 0.1281 -0.1439
vn 0.9907 -0.1220 -0.0596
vn 0.7336 0.2251 -0.6412
vn 0.9521 0.2747 -0.1342
vn 0.8631 -0.2577 0.4344
vn 0.6952 0.3958 0.6001
vn 0.8282 0.2014 0.5231
vn 0.6852 0.0950 -0.7221
vn 0.5157 0.3419 -0.7856
vn 0.6629 0.2419 -0.7086
vn 0.6573 0.1719 -0.7338
vn 0.6099 0.2285 -0.7589
vn 0.5810 0.3627 -0.7286
vn 0.6241 0.4875 0.6106
vn 0.3138 0.1691 0.9343
vn 0.0549 0.2869 0.9564
vn 0.1513 0.3919 0.9075
vn 0.5567 -0.0849 0.8264
vn 0.6561 -0.7504 0.0796
vn 0.3051 0.0236 0.9520
vn 0.4654 0.2422 0.8513
vn -0.0335 -0.0850 0.9958
vn 0.2915 0.4654 0.8357
vn 0.6302 0.1652 0.7586
vn -0.2722 -0.0609 0.9603
vn -0.5302 -0.2256 0.8173
vn -0.0174 0.1487 0.9887
vn 0.4114 0.1447 0.8999
vn 0.5041 0.1009 0.8578
vn 0.5356 0.2939 0.7917
vn 0.1275 0.8522 -0.5074
vn 0.3772 0.9195 -0.1111
vn 0.4820 0.7134 -0.5086
vn -0.2226 0.8085 -0.5448
vn 0.1028 0.9857 -0.1337
vn 0.2882 0.8635 0.4138
vn 0.5404 0.6622 0.5191
vn -0.3440 0.9310 -0.1219
vn 0.1662 0.6036 -0.7797
vn 0.7141 0.2552 -0.6518
vn -0.4059 0.4916 -0.7705
vn -0.3021 0.9256 0.2283
vn -0.0605 0.4894 0.8700
vn 0.6259 0.7754 -0.0836
vn -0.5559 -0.2638 -0.7883
vn 0.2370 0.1905 -0.9527
vn -0.0650 -0.1725 -0.9829
vn -0.2453 0.3094 -0.9187
vn -0.3305 0.0855 -0.9399
vn 0.4912 0.0723 -0.8680
vn 0.6966 0.1167 -0.7079
vn 0.5709 0.3114 -0.7596
vn -0.8137 -0.1244 -0.5678
vn 0.2042 0.1864 -0.9610
usemtl Material.001
s 1
f 46/1/1 48/2/2 45/3/3
f 47/4/4 49/5/5 46/1/1
f 49/6/5 51/7/6 48/8/2
f 49/9/5 53/10/7 52/11/8
f 6/12/9 45/13/3 36/14/10
f 26/15/11 46/1/1 45/3/3
f 25/16/12 47/4/4 46/1/1
f 2/17/13 47/4/4 24/18/14
f 17/19/15 50/20/16 47/4/4
f 50/21/16 15/22/17 53/10/7
f 53/10/7 4/23/18 14/24/19
f 53/10/7 13/25/20 52/11/8
f 51/7/6 13/26/20 12/27/21
f 51/7/6 8/28/22 38/29/23
f 48/8/2 38/29/23 37/30/24
f 45/13/3 37/30/24 36/14/10
f 54/31/25 58/32/26 57/33/27
f 55/34/28 59/35/29 58/32/26
f 58/32/26 60/36/30 57/33/27
f 58/32/26 62/37/31 61/38/32
f 7/39/33 54/31/25 44/40/34
f 39/41/35 55/34/28 54/31/25
f 41/42/36 55/43/28 40/44/37
f 5/45/38 56/46/39 41/42/36
f 33/47/40 59/48/29 56/49/39
f 59/35/29 35/50/41 62/37/31
f 62/37/31 6/12/9 36/14/10
f 61/38/32 36/14/10 37/30/24
f 60/36/30 37/30/24 38/29/23
f 60/36/30 8/28/22 42/51/42
f 57/33/27 42/51/42 43/52/43
f 54/31/25 43/52/43 44/40/34
f 63/53/44 67/54/45 66/55/46
f 64/56/47 68/57/48 67/54/45
f 67/54/45 69/58/49 66/55/46
f 67/54/45 71/59/50 70/60/51
f 2/61/13 63/53/44 17/62/15
f 29/63/52 64/56/47 63/53/44
f 28/64/53 65/65/54 64/56/47
f 1/66/55 65/67/54 27/68/56
f 30/69/57 68/57/48 65/65/54
f 68/70/48 32/71/58 71/72/50
f 71/72/50 3/73/59 18/74/60
f 71/72/50 19/75/61 70/76/51
f 70/76/51 20/77/62 69/78/49
f 69/79/49 4/23/18 15/22/17
f 66/80/46 15/22/17 16/81/63
f 17/62/15 66/55/46 16/82/63
f 72/83/64 76/84/65 75/85/66
f 73/86/67 77/87/68 76/84/65
f 75/85/66 79/88/69 78/89/70
f 76/84/65 80/90/71 79/88/69
f 4/23/18 72/91/64 14/24/19
f 19/75/61 72/83/64 20/77/62
f 18/74/60 73/86/67 19/75/61
f 3/73/59 74/92/72 18/74/60
f 9/93/73 77/87/68 74/92/72
f 10/94/74 80/90/71 77/87/68
f 80/90/71 7/95/33 44/96/34
f 79/88/69 44/96/34 43/97/43
f 78/98/70 43/52/43 42/51/42
f 78/98/70 8/28/22 12/27/21
f 75/85/66 12/99/21 13/100/20
f 14/101/19 75/85/66 13/100/20
f 82/102/75 84/103/76 81/104/77
f 83/105/78 85/106/79 82/102/75
f 84/103/76 88/107/80 87/108/81
f 86/109/82 88/107/80 85/106/79
f 1/110/55 81/111/77 30/112/57
f 22/113/83 81/104/77 23/114/84
f 21/115/85 82/102/75 22/113/83
f 5/45/38 83/105/78 21/115/85
f 41/42/36 86/109/82 83/105/78
f 86/109/82 39/116/35 89/117/86
f 89/118/86 7/95/33 11/119/87
f 88/120/80 11/119/87 10/94/74
f 87/121/81 10/94/74 9/93/73
f 87/121/81 3/73/59 32/71/58
f 84/122/76 32/71/58 31/123/88
f 30/124/57 84/103/76 31/125/88
f 90/126/89 94/127/90 93/128/91
f 92/129/92 94/127/90 91/130/93
f 94/127/90 96/131/94 93/128/91
f 94/132/90 98/133/95 97/134/96
f 6/135/9 90/126/89 26/15/11
f 34/136/97 90/126/89 35/137/41
f 33/47/40 91/130/93 34/136/97
f 5/45/38 92/138/92 33/139/40
f 21/140/85 95/141/98 92/129/92
f 95/142/98 23/143/84 98/133/95
f 98/133/95 1/110/55 27/144/56
f 97/145/96 27/146/56 28/147/53
f 96/148/94 28/149/53 29/150/52
f 96/131/94 2/17/13 24/18/14
f 93/128/91 24/18/14 25/16/12
f 90/126/89 25/16/12 26/15/11
f 46/1/1 49/5/5 48/2/2
f 47/4/4 50/20/16 49/5/5
f 49/6/5 52/151/8 51/7/6
f 49/9/5 50/21/16 53/10/7
f 6/12/9 26/152/11 45/13/3
f 26/15/11 25/16/12 46/1/1
f 25/16/12 24/18/14 47/4/4
f 2/17/13 17/19/15 47/4/4
f 17/19/15 16/153/63 50/20/16
f 50/21/16 16/81/63 15/22/17
f 53/10/7 15/22/17 4/23/18
f 53/10/7 14/24/19 13/25/20
f 51/7/6 52/151/8 13/26/20
f 51/7/6 12/27/21 8/28/22
f 48/8/2 51/7/6 38/29/23
f 45/13/3 48/8/2 37/30/24
f 54/31/25 55/34/28 58/32/26
f 55/34/28 56/154/39 59/35/29
f 58/32/26 61/38/32 60/36/30
f 58/32/26 59/35/29 62/37/31
f 7/39/33 39/41/35 54/31/25
f 39/41/35 40/155/37 55/34/28
f 41/42/36 56/46/39 55/43/28
f 5/45/38 33/139/40 56/46/39
f 33/47/40 34/136/97 59/48/29
f 59/35/29 34/156/97 35/50/41
f 62/37/31 35/50/41 6/12/9
f 61/38/32 62/37/31 36/14/10
f 60/36/30 61/38/32 37/30/24
f 60/36/30 38/29/23 8/28/22
f 57/33/27 60/36/30 42/51/42
f 54/31/25 57/33/27 43/52/43
f 63/53/44 64/56/47 67/54/45
f 64/56/47 65/65/54 68/57/48
f 67/54/45 70/60/51 69/58/49
f 67/54/45 68/57/48 71/59/50
f 2/61/13 29/63/52 63/53/44
f 29/63/52 28/64/53 64/56/47
f 28/64/53 27/157/56 65/65/54
f 1/66/55 30/158/57 65/67/54
f 30/69/57 31/159/88 68/57/48
f 68/70/48 31/123/88 32/71/58
f 71/72/50 32/71/58 3/73/59
f 71/72/50 18/74/60 19/75/61
f 70/76/51 19/75/61 20/77/62
f 69/79/49 20/160/62 4/23/18
f 66/80/46 69/79/49 15/22/17
f 17/62/15 63/53/44 66/55/46
f 72/83/64 73/86/67 76/84/65
f 73/86/67 74/92/72 77/87/68
f 75/85/66 76/84/65 79/88/69
f 76/84/65 77/87/68 80/90/71
f 4/23/18 20/160/62 72/91/64
f 19/75/61 73/86/67 72/83/64
f 18/74/60 74/92/72 73/86/67
f 3/73/59 9/93/73 74/92/72
f 9/93/73 10/94/74 77/87/68
f 10/94/74 11/119/87 80/90/71
f 80/90/71 11/119/87 7/95/33
f 79/88/69 80/90/71 44/96/34
f 78/98/70 79/161/69 43/52/43
f 78/98/70 42/51/42 8/28/22
f 75/85/66 78/89/70 12/99/21
f 14/101/19 72/83/64 75/85/66
f 82/102/75 85/106/79 84/103/76
f 83/105/78 86/109/82 85/106/79
f 84/103/76 85/106/79 88/107/80
f 86/109/82 89/117/86 88/107/80
f 1/110/55 23/143/84 81/111/77
f 22/113/83 82/102/75 81/104/77
f 21/115/85 83/105/78 82/102/75
f 5/45/38 41/42/36 83/105/78
f 41/42/36 40/44/37 86/109/82
f 86/109/82 40/44/37 39/116/35
f 89/118/86 39/162/35 7/95/33
f 88/120/80 89/118/86 11/119/87
f 87/121/81 88/120/80 10/94/74
f 87/121/81 9/93/73 3/73/59
f 84/122/76 87/121/81 32/71/58
f 30/124/57 81/104/77 84/103/76
f 90/126/89 91/130/93 94/127/90
f 92/129/92 95/141/98 94/127/90
f 94/127/90 97/163/96 96/131/94
f 94/132/90 95/142/98 98/133/95
f 6/135/9 35/137/41 90/126/89
f 34/136/97 91/130/93 90/126/89
f 33/47/40 92/129/92 91/130/93
f 5/45/38 21/115/85 92/138/92
f 21/140/85 22/164/83 95/141/98
f 95/142/98 22/165/83 23/143/84
f 98/133/95 23/143/84 1/110/55
f 97/145/96 98/166/95 27/146/56
f 96/148/94 97/167/96 28/149/53
f 96/131/94 29/168/52 2/17/13
f 93/128/91 96/131/94 24/18/14
f 90/126/89 93/128/91 25/16/12
