# Blender v3.6.1 OBJ File: 'MoreRocksHell.blend'
# www.blender.org
mtllib MoreRocksHell1.mtl
v 0.118282 3.836338 -10.889955
v 0.105723 -0.799156 -11.055680
v -0.156961 1.939327 -8.620142
v 0.280903 -0.546495 -8.151373
v -2.320645 2.010240 -10.770337
v -2.390752 -0.577995 -10.860008
v -2.492409 2.252961 -8.355061
v -2.184476 -0.350576 -8.804255
v -0.553254 2.043082 -8.508875
v -1.106172 2.254125 -8.297985
v -1.840842 2.295382 -8.267073
v -1.813387 -0.477766 -8.711651
v -1.289377 -0.671956 -8.524958
v -0.595831 -0.743428 -8.379242
v 0.248701 -0.889214 -8.975713
v 0.234779 -0.929332 -9.764273
v 0.129553 -0.832709 -10.462850
v -0.121183 1.632555 -8.506290
v 0.031739 0.851866 -8.438491
v 0.072459 0.089145 -8.422096
v -1.917661 3.904613 -10.998405
v -1.176008 3.946451 -11.067858
v -0.430475 3.954540 -11.040031
v -0.441207 -1.092214 -11.327455
v -1.288064 -1.068518 -11.306823
v -2.037589 -0.904346 -11.160375
v 0.187413 1.798390 -11.010098
v 0.650824 0.903294 -11.426374
v 0.568280 -0.154562 -11.306380
v 0.106299 3.794846 -10.290088
v 0.040376 3.778131 -9.596769
v -0.091717 3.605610 -9.040203
v -2.320996 1.628815 -10.782161
v -2.470446 0.640599 -10.999523
v -2.351330 -0.142030 -10.873959
v -2.568751 -0.740532 -10.357481
v -2.394297 -0.573318 -9.739902
v -2.345492 -0.515791 -9.186935
v -2.459930 2.196117 -8.979002
v -2.468876 2.192057 -9.632909
v -2.460972 2.183501 -10.310528
v -2.191494 0.169362 -8.589523
v -2.261980 0.830398 -8.531209
v -2.381990 1.591158 -8.457166
v -1.950811 -1.045383 -10.422688
v -1.254573 -1.075095 -10.459360
v -0.514577 -1.183413 -10.491793
v -1.980466 -1.114186 -9.720413
v -1.261119 -1.178822 -9.753241
v -0.512711 -1.226689 -9.760435
v -1.842548 -0.772571 -9.161035
v -1.278018 -1.059106 -9.059453
v -0.522644 -1.306901 -8.962870
v -2.621081 1.653321 -9.021545
v -2.817424 1.742710 -9.636382
v -2.696596 1.714115 -10.317943
v -2.698536 0.827585 -8.974666
v -2.249214 0.760805 -9.747693
v -2.613869 0.589962 -10.324390
v -2.245631 -0.011384 -9.293581
v -2.168530 -0.001015 -9.760759
v -2.509614 -0.111807 -10.281382
v 0.690943 -0.088993 -10.442871
v 0.877880 0.870439 -10.461865
v 0.376445 1.749785 -10.308097
v 0.686506 -0.067909 -9.647480
v 0.718060 0.863567 -9.636065
v 0.325091 1.721145 -9.630149
v 0.512936 -0.001631 -8.917240
v 0.561894 0.867026 -8.897953
v 0.200343 1.691513 -9.024303
v -0.499294 0.077841 -8.221082
v -0.561851 0.850564 -8.345719
v -0.678352 1.533253 -8.504885
v -1.170236 0.038662 -7.946463
v -1.139816 0.856333 -8.212280
v -1.177363 1.566534 -8.406272
v -1.732386 0.136987 -8.367550
v -1.777001 0.831603 -8.203226
v -1.769888 1.612890 -8.230389
v -0.473671 5.687933 -10.299201
v -1.171599 5.906637 -10.361242
v -1.861192 4.010458 -10.297912
v -0.546329 5.512513 -9.613626
v -1.161224 5.751706 -9.602482
v -1.818446 3.912393 -9.629993
v -0.655519 3.512446 -9.109075
v -1.153994 3.903044 -8.999633
v -1.806457 3.941808 -9.001590
v -1.825173 -0.155658 -11.140477
v -1.832340 0.601303 -11.198286
v -1.849625 1.679991 -11.112855
v -1.241798 -0.248561 -11.449862
v -1.227138 0.607746 -11.385498
v -1.210120 1.791061 -11.364721
v -0.471241 -0.274971 -11.529320
v -0.285918 0.870122 -11.702692
v -0.476115 1.780328 -11.314313
v -0.241375 7.052079 -9.756492
v -0.493570 7.075471 -9.500936
v -0.268026 6.987735 -9.505023
v -0.497375 7.132300 -9.779248
vt 0.767544 0.773691
vt 0.791586 0.795636
vt 0.764156 0.801339
vt 0.794643 0.768467
vt 0.820403 0.791089
vt 0.774387 0.828584
vt 0.791826 0.825724
vt 0.459969 0.126829
vt 0.432052 0.109702
vt 0.453465 0.108027
vt 0.767574 0.746243
vt 0.794730 0.734276
vt 0.822168 0.762022
vt 0.853906 0.741974
vt 0.827859 0.729083
vt 0.853383 0.765453
vt 0.854875 0.824489
vt 0.817459 0.822346
vt 0.845200 0.846569
vt 0.822967 0.854920
vt 0.796944 0.853348
vt 0.433798 0.053291
vt 0.425341 0.022174
vt 0.442362 0.031551
vt 0.453780 0.036604
vt 0.452025 0.055196
vt 0.453728 0.079393
vt 0.523028 0.040506
vt 0.503981 0.072557
vt 0.498493 0.045397
vt 0.533845 0.093948
vt 0.532961 0.066283
vt 0.474521 0.052332
vt 0.481594 0.105138
vt 0.476780 0.075264
vt 0.533180 0.018319
vt 0.513768 0.016332
vt 0.173623 0.287188
vt 0.197253 0.314386
vt 0.175302 0.308319
vt 0.214797 0.285337
vt 0.193803 0.286540
vt 0.231372 0.281409
vt 0.224299 0.308405
vt 0.244366 0.292875
vt 0.236034 0.324347
vt 0.510595 0.102349
vt 0.481278 0.134237
vt 0.469794 0.031947
vt 0.489757 0.025398
vt 0.809485 0.557296
vt 0.842894 0.525472
vt 0.840786 0.557031
vt 0.814831 0.493312
vt 0.811048 0.525522
vt 0.868681 0.553902
vt 0.866869 0.495686
vt 0.871302 0.524960
vt 0.782332 0.580682
vt 0.807578 0.582769
vt 0.774747 0.558529
vt 0.784782 0.489521
vt 0.771639 0.522096
vt 0.798019 0.475147
vt 0.218522 0.200958
vt 0.203832 0.184824
vt 0.229692 0.181149
vt 0.245785 0.595255
vt 0.260873 0.570235
vt 0.269486 0.582922
vt 0.235231 0.573843
vt 0.244731 0.558120
vt 0.248761 0.534397
vt 0.272259 0.543322
vt 0.251601 0.511642
vt 0.271897 0.517328
vt 0.253167 0.491412
vt 0.272259 0.485241
vt 0.871302 0.587193
vt 0.837682 0.588187
vt 0.228068 0.507614
vt 0.201154 0.530484
vt 0.200309 0.501248
vt 0.222000 0.554349
vt 0.224772 0.532684
vt 0.180317 0.512472
vt 0.175088 0.552193
vt 0.175976 0.529451
vt 0.232478 0.479288
vt 0.221432 0.575308
vt 0.200720 0.553758
vt 0.177351 0.579325
vt 0.156417 0.579407
vt 0.151202 0.555730
vt 0.158642 0.535429
vt 0.480871 0.009705
vt 0.460693 0.020939
vt 0.284821 0.425833
vt 0.271925 0.436442
vt 0.270060 0.419345
vt 0.203769 0.484966
vt 0.214707 0.218048
vt 0.212719 0.239188
vt 0.212719 0.239188
vt 0.214707 0.218048
vt 0.212817 0.263988
vt 0.191313 0.241210
vt 0.226347 0.598292
vt 0.203406 0.590002
vt 0.221219 0.579818
vt 0.173838 0.264666
vt 0.175338 0.243502
vt 0.236498 0.199339
vt 0.238466 0.240797
vt 0.238732 0.216237
vt 0.235635 0.265643
vt 0.193546 0.264357
vt 0.153634 0.288736
vt 0.151460 0.267086
vt 0.154139 0.243187
vt 0.164200 0.226353
vt 0.184444 0.230037
vt 0.169584 0.213968
vt 0.182076 0.210844
vt 0.239237 0.581567
vt 0.197267 0.204295
vt 0.799019 0.894422
vt 0.834309 0.924545
vt 0.802797 0.925340
vt 0.257312 0.272277
vt 0.289759 0.251101
vt 0.279429 0.282414
vt 0.834309 0.960148
vt 0.804519 0.965542
vt 0.266347 0.214172
vt 0.289759 0.216551
vt 0.772577 0.876953
vt 0.766386 0.893273
vt 0.792708 0.866709
vt 0.828777 0.892639
vt 0.267574 0.314867
vt 0.266613 0.244286
vt 0.255671 0.187157
vt 0.280879 0.179684
vt 0.796370 0.995408
vt 0.770873 0.986333
vt 0.764342 0.963350
vt 0.763852 0.926391
vt 0.443255 0.140236
vt 0.854875 0.791895
vt 0.412987 0.048069
vt 0.425744 0.080745
vt 0.533845 0.039072
vt 0.514965 0.135131
vt 0.842551 0.494737
vt 0.817695 0.476860
vt 0.201767 0.578514
vt 0.284821 0.443776
vt 0.446604 0.002072
vt 0.195677 0.222856
vt 0.195677 0.222856
vt 0.205510 0.605393
vt 0.825026 0.858893
vt 0.831488 0.997915
vt 0.191313 0.241210
vt 0.226347 0.598292
vt 0.205510 0.605393
vn -0.3375 -0.9346 -0.1124
vn -0.1168 -0.9912 0.0616
vn -0.4621 -0.8580 0.2242
vn -0.1095 -0.9904 -0.0848
vn 0.1461 -0.9876 -0.0565
vn -0.4414 -0.7858 0.4333
vn -0.3535 -0.8723 0.3378
vn -0.8037 -0.2381 -0.5453
vn -0.8595 -0.5103 -0.0298
vn -0.5041 -0.5437 -0.6710
vn -0.2099 -0.7169 -0.6648
vn 0.1830 -0.9813 -0.0596
vn 0.6098 -0.6786 -0.4096
vn 0.2642 -0.7212 -0.6404
vn 0.6565 -0.7485 -0.0931
vn 0.7173 -0.6815 0.1452
vn 0.0325 -0.9622 0.2703
vn 0.5611 -0.2489 0.7894
vn -0.1819 -0.5024 0.8453
vn -0.3075 -0.6241 0.7183
vn -0.4208 -0.5946 0.6851
vn -0.7269 -0.3927 0.5634
vn -0.8805 -0.3882 0.2719
vn -0.9253 -0.2604 0.2758
vn -0.9818 0.0051 0.1900
vn -0.9755 -0.2072 0.0738
vn -0.9622 -0.2438 0.1213
vn -0.9484 0.0711 -0.3091
vn -0.9987 0.0304 0.0411
vn -0.9982 -0.0507 -0.0326
vn -0.9918 0.0227 0.1254
vn -0.9720 0.0899 0.2170
vn -0.7392 0.2084 0.6404
vn -0.6775 -0.1235 0.7251
vn -0.9350 0.3547 0.0065
vn -0.8918 0.3888 -0.2311
vn -0.8765 0.4813 0.0032
vn -0.7582 0.1426 -0.6362
vn -0.6962 0.0521 -0.7160
vn -0.9888 -0.0633 0.1349
vn -0.7621 -0.0593 -0.6448
vn -0.7940 -0.2138 0.5691
vn -0.6681 -0.2289 0.7080
vn 0.9244 -0.3810 -0.0205
vn 0.9690 0.1786 0.1705
vn 0.9647 -0.2502 0.0825
vn 0.9520 0.3030 -0.0429
vn 0.9858 0.1677 -0.0130
vn 0.9251 -0.0808 0.3710
vn 0.8703 0.2638 0.4159
vn 0.8559 0.1906 0.4807
vn 0.7027 -0.3852 -0.5981
vn 0.7139 0.3262 -0.6196
vn 0.7069 0.2183 -0.6728
vn 0.7848 0.2512 -0.5666
vn 0.9752 0.2116 0.0650
vn 0.9500 0.2755 0.1473
vn 0.9532 0.2288 0.1978
vn 0.5029 0.2390 0.8306
vn 0.4165 0.2605 0.8710
vn 0.4470 0.1745 0.8774
vn 0.5375 0.2478 0.8060
vn 0.6682 -0.7386 -0.0892
vn 0.1735 0.0030 0.9848
vn 0.0978 0.1658 0.9813
vn -0.1024 -0.1777 0.9787
vn 0.1510 0.1246 0.9806
vn 0.1855 0.2122 0.9595
vn -0.4418 -0.2470 0.8624
vn -0.0229 0.0534 0.9983
vn -0.2437 -0.1160 0.9629
vn 0.3300 0.1384 0.9338
vn 0.2300 0.0948 0.9686
vn -0.0236 0.2130 0.9768
vn 0.7366 0.2980 -0.6072
vn -0.5787 0.5144 -0.6329
vn -0.2805 0.8785 -0.3869
vn 0.7692 0.5435 -0.3359
vn -0.8980 0.4213 -0.1268
vn -0.6427 0.3593 0.6766
vn 0.6625 0.1708 0.7294
vn 0.1982 0.3180 0.9271
vn 0.1710 0.3007 0.9383
vn -0.6259 0.4738 0.6195
vn -0.1743 0.3327 -0.9268
vn 0.1729 0.2663 -0.9482
vn -0.5831 0.5760 -0.5729
vn -0.9373 0.3440 0.0567
vn 0.2257 0.1354 0.9647
vn 0.5285 0.2869 0.7990
vn -0.4196 0.0001 -0.9077
vn -0.3152 0.0732 -0.9462
vn -0.3058 -0.0800 -0.9487
vn -0.4609 0.0569 -0.8856
vn -0.3361 0.0049 -0.9418
vn 0.0122 0.1688 -0.9856
vn 0.0912 -0.2347 -0.9678
vn 0.1660 0.2018 -0.9652
vn -0.7312 0.0265 -0.6817
vn -0.1587 0.0786 -0.9842
vn 0.6771 0.2885 0.6770
vn -0.3077 0.6612 0.6842
usemtl Material.001
s 1
f 45/1/1 49/2/2 48/3/3
f 46/4/4 50/5/5 49/2/2
f 49/2/2 51/6/6 48/3/3
f 50/5/5 52/7/7 49/2/2
f 6/8/8 45/9/1 36/10/9
f 26/11/10 46/4/4 45/1/1
f 25/12/11 47/13/12 46/4/4
f 2/14/13 47/13/12 24/15/14
f 17/16/15 50/5/5 47/13/12
f 50/5/5 15/17/16 53/18/17
f 53/18/17 4/19/18 14/20/19
f 52/7/7 14/20/19 13/21/20
f 51/22/6 13/23/20 12/24/21
f 51/22/6 8/25/22 38/26/23
f 37/27/24 51/22/6 38/26/23
f 45/9/1 37/27/24 36/10/9
f 54/28/25 58/29/26 57/30/27
f 56/31/28 58/29/26 55/32/29
f 58/29/26 60/33/30 57/30/27
f 58/29/26 62/34/31 61/35/32
f 7/36/33 54/28/25 44/37/34
f 39/38/35 55/39/29 54/40/25
f 41/41/36 55/39/29 40/42/37
f 5/43/38 56/44/28 41/41/36
f 33/45/39 59/46/40 56/44/28
f 59/47/40 35/48/41 62/34/31
f 62/34/31 6/8/8 36/10/9
f 62/34/31 37/27/24 61/35/32
f 61/35/32 38/26/23 60/33/30
f 60/33/30 8/25/22 42/49/42
f 43/50/43 60/33/30 42/49/42
f 44/37/34 57/30/27 43/50/43
f 63/51/44 67/52/45 66/53/46
f 65/54/47 67/52/45 64/55/48
f 67/52/45 69/56/49 66/53/46
f 67/52/45 71/57/50 70/58/51
f 2/59/13 63/51/44 17/60/15
f 29/61/52 64/55/48 63/51/44
f 27/62/53 64/55/48 28/63/54
f 1/64/55 65/54/47 27/62/53
f 30/65/56 68/66/57 65/67/47
f 31/68/58 71/69/50 68/70/57
f 71/69/50 3/71/59 18/72/60
f 71/69/50 19/73/61 70/74/51
f 70/74/51 20/75/62 69/76/49
f 69/76/49 4/77/18 15/78/16
f 66/53/46 15/79/16 16/80/63
f 17/60/15 66/53/46 16/80/63
f 72/81/64 76/82/65 75/83/66
f 74/84/67 76/82/65 73/85/68
f 76/82/65 78/86/69 75/83/66
f 76/82/65 80/87/70 79/88/71
f 4/77/18 72/81/64 14/89/19
f 19/73/61 72/81/64 20/75/62
f 19/73/61 74/84/67 73/85/68
f 3/71/59 74/84/67 18/72/60
f 9/90/72 77/91/73 74/84/67
f 77/91/73 11/92/74 80/87/70
f 80/87/70 7/93/33 44/94/34
f 79/88/71 44/94/34 43/95/43
f 79/96/71 42/49/42 78/97/69
f 78/98/69 8/99/22 12/100/21
f 13/23/20 78/97/69 12/24/21
f 72/81/64 13/101/20 14/89/19
f 81/102/75 82/103/76 102/104/77 99/105/78
f 83/106/79 85/107/80 82/103/76
f 84/108/81 88/109/82 87/110/83
f 85/107/80 89/111/84 88/112/82
f 1/113/55 81/102/75 30/65/56
f 22/114/85 81/102/75 23/115/86
f 22/114/85 83/106/79 82/103/76
f 5/43/38 83/106/79 21/116/87
f 83/106/79 40/42/37 86/117/88
f 86/117/88 39/38/35 89/111/84
f 89/111/84 7/118/33 11/119/74
f 89/111/84 10/120/89 88/112/82
f 88/112/82 9/121/72 87/122/83
f 87/122/83 3/123/59 32/124/90
f 84/108/81 32/125/90 31/68/58
f 81/102/75 31/126/58 30/65/56
f 90/127/91 94/128/92 93/129/93
f 92/130/94 94/131/92 91/132/95
f 93/129/93 97/133/96 96/134/97
f 94/131/92 98/135/98 97/136/96
f 6/137/8 90/127/91 26/138/10
f 35/139/41 91/140/95 90/127/91
f 33/45/39 91/132/95 34/141/99
f 5/43/38 92/130/94 33/45/39
f 92/130/94 22/114/85 95/142/100
f 95/142/100 23/115/86 98/135/98
f 98/135/98 1/113/55 27/143/53
f 97/136/96 27/143/53 28/144/54
f 97/133/96 29/145/52 96/134/97
f 96/134/97 2/146/13 24/147/14
f 93/129/93 24/147/14 25/148/11
f 90/127/91 25/148/11 26/138/10
f 45/1/1 46/4/4 49/2/2
f 46/4/4 47/13/12 50/5/5
f 49/2/2 52/7/7 51/6/6
f 50/5/5 53/18/17 52/7/7
f 6/8/8 26/149/10 45/9/1
f 26/11/10 25/12/11 46/4/4
f 25/12/11 24/15/14 47/13/12
f 2/14/13 17/16/15 47/13/12
f 17/16/15 16/150/63 50/5/5
f 50/5/5 16/150/63 15/17/16
f 53/18/17 15/17/16 4/19/18
f 52/7/7 53/18/17 14/20/19
f 51/22/6 52/151/7 13/23/20
f 51/22/6 12/24/21 8/25/22
f 37/27/24 48/152/3 51/22/6
f 45/9/1 48/152/3 37/27/24
f 54/28/25 55/32/29 58/29/26
f 56/31/28 59/47/40 58/29/26
f 58/29/26 61/35/32 60/33/30
f 58/29/26 59/47/40 62/34/31
f 7/36/33 39/153/35 54/28/25
f 39/38/35 40/42/37 55/39/29
f 41/41/36 56/44/28 55/39/29
f 5/43/38 33/45/39 56/44/28
f 33/45/39 34/141/99 59/46/40
f 59/47/40 34/154/99 35/48/41
f 62/34/31 35/48/41 6/8/8
f 62/34/31 36/10/9 37/27/24
f 61/35/32 37/27/24 38/26/23
f 60/33/30 38/26/23 8/25/22
f 43/50/43 57/30/27 60/33/30
f 44/37/34 54/28/25 57/30/27
f 63/51/44 64/55/48 67/52/45
f 65/54/47 68/155/57 67/52/45
f 67/52/45 70/58/51 69/56/49
f 67/52/45 68/155/57 71/57/50
f 2/59/13 29/61/52 63/51/44
f 29/61/52 28/63/54 64/55/48
f 27/62/53 65/54/47 64/55/48
f 1/64/55 30/156/56 65/54/47
f 30/65/56 31/126/58 68/66/57
f 31/68/58 32/125/90 71/69/50
f 71/69/50 32/125/90 3/71/59
f 71/69/50 18/72/60 19/73/61
f 70/74/51 19/73/61 20/75/62
f 69/76/49 20/75/62 4/77/18
f 66/53/46 69/56/49 15/79/16
f 17/60/15 63/51/44 66/53/46
f 72/81/64 73/85/68 76/82/65
f 74/84/67 77/91/73 76/82/65
f 76/82/65 79/88/71 78/86/69
f 76/82/65 77/91/73 80/87/70
f 4/77/18 20/75/62 72/81/64
f 19/73/61 73/85/68 72/81/64
f 19/73/61 18/72/60 74/84/67
f 3/71/59 9/90/72 74/84/67
f 9/90/72 10/157/89 77/91/73
f 77/91/73 10/157/89 11/92/74
f 80/87/70 11/92/74 7/93/33
f 79/88/71 80/87/70 44/94/34
f 79/96/71 43/50/43 42/49/42
f 78/98/69 42/158/42 8/99/22
f 13/23/20 75/159/66 78/97/69
f 72/81/64 75/83/66 13/101/20
f 84/160/81 81/102/75 99/105/78 101/161/101
f 83/106/79 86/117/88 85/107/80
f 84/108/81 85/162/80 88/109/82
f 85/107/80 86/117/88 89/111/84
f 1/113/55 23/115/86 81/102/75
f 22/114/85 82/103/76 81/102/75
f 22/114/85 21/116/87 83/106/79
f 5/43/38 41/41/36 83/106/79
f 83/106/79 41/41/36 40/42/37
f 86/117/88 40/42/37 39/38/35
f 89/111/84 39/38/35 7/118/33
f 89/111/84 11/119/74 10/120/89
f 88/112/82 10/120/89 9/121/72
f 87/122/83 9/121/72 3/123/59
f 84/108/81 87/110/83 32/125/90
f 81/102/75 84/160/81 31/126/58
f 90/127/91 91/140/95 94/128/92
f 92/130/94 95/142/100 94/131/92
f 93/129/93 94/128/92 97/133/96
f 94/131/92 95/142/100 98/135/98
f 6/137/8 35/139/41 90/127/91
f 35/139/41 34/163/99 91/140/95
f 33/45/39 92/130/94 91/132/95
f 5/43/38 21/116/87 92/130/94
f 92/130/94 21/116/87 22/114/85
f 95/142/100 22/114/85 23/115/86
f 98/135/98 23/115/86 1/113/55
f 97/136/96 98/135/98 27/143/53
f 97/133/96 28/164/54 29/145/52
f 96/134/97 29/145/52 2/146/13
f 93/129/93 96/134/97 24/147/14
f 90/127/91 93/129/93 25/148/11
f 99/105/78 100/165/102 101/161/101
f 99/105/78 102/104/77 100/165/102
f 85/162/80 84/108/81 101/166/101 100/167/102
f 82/103/76 85/107/80 100/165/102 102/104/77
