# Blender v3.6.1 OBJ File: 'RocksHells.blend'
# www.blender.org
mtllib RockHell1.mtl
v 1.619946 1.185167 -11.295372
v 1.758024 0.258043 -11.420488
v 1.537316 1.102665 -10.613955
v 1.668766 0.356399 -10.473226
v 0.887758 1.123954 -11.259462
v 0.793489 0.343491 -11.344889
v 0.836193 1.196821 -10.534374
v 0.873186 0.431356 -10.550631
v 1.418345 1.133813 -10.580551
v 1.252354 1.197170 -10.517240
v 1.031799 1.209556 -10.507960
v 1.016560 0.382215 -10.514853
v 1.219015 0.307188 -10.442721
v 1.486973 0.279574 -10.386423
v 1.813265 0.223248 -10.616875
v 1.807886 0.207749 -10.921542
v 1.767231 0.245079 -11.191443
v 1.635681 1.011068 -10.486331
v 1.657456 0.780007 -10.478210
v 1.667832 0.555086 -10.476930
v 1.008738 1.205664 -11.327930
v 1.231388 1.218224 -11.348781
v 1.455204 1.220653 -11.340426
v 1.546713 0.144818 -11.525491
v 1.219523 0.153973 -11.517520
v 0.929937 0.217402 -11.460938
v 1.751936 1.073541 -11.429571
v 1.880778 0.798559 -11.556026
v 1.845389 0.467813 -11.509809
v 1.616349 1.172711 -11.115287
v 1.596558 1.167693 -10.907146
v 1.556902 1.115901 -10.740061
v 0.806963 1.009659 -11.343702
v 0.649523 0.802750 -11.493748
v 0.707451 0.504823 -11.433142
v 0.724718 0.280693 -11.150733
v 0.792120 0.345297 -10.912126
v 0.810976 0.367524 -10.698483
v 0.845943 1.179756 -10.721687
v 0.843258 1.178537 -10.917996
v 0.845631 1.175968 -11.121424
v 0.857096 0.583813 -10.536886
v 0.830046 0.772263 -10.511657
v 0.783985 0.995473 -10.467825
v 0.963465 0.162911 -11.175926
v 1.232462 0.151432 -11.190095
v 1.518366 0.109582 -11.202625
v 0.952007 0.136328 -10.904596
v 1.229933 0.111356 -10.917279
v 1.519087 0.092862 -10.920059
v 1.005293 0.268314 -10.688476
v 1.223404 0.157609 -10.649228
v 1.515249 0.061871 -10.611913
v 0.693914 1.018891 -10.680439
v 0.619947 1.052565 -10.912062
v 0.665466 1.041793 -11.168820
v 0.672567 0.771248 -10.671625
v 0.630999 0.772797 -10.913924
v 0.582939 0.779242 -11.180320
v 0.756165 0.565034 -10.704792
v 0.791698 0.569813 -10.920101
v 0.634502 0.518752 -11.160041
v 1.889315 0.491294 -11.200582
v 1.962683 0.786707 -11.208100
v 1.823149 1.055231 -11.165112
v 1.887726 0.498844 -10.915747
v 1.905031 0.784228 -10.910211
v 1.803803 1.044441 -10.909714
v 1.825569 0.522579 -10.654243
v 1.848698 0.785476 -10.643952
v 1.756808 1.033279 -10.681479
v 1.463084 0.551038 -10.404944
v 1.443331 0.779538 -10.444746
v 1.425783 0.973659 -10.485802
v 1.222815 0.537008 -10.306602
v 1.234843 0.781619 -10.396610
v 1.237795 0.986196 -10.448652
v 1.021505 0.572219 -10.457397
v 1.004992 0.772698 -10.393344
v 1.014578 1.003660 -10.382393
v 1.442236 1.247678 -11.118023
v 1.232712 1.313335 -11.136648
v 1.025690 1.237440 -11.117636
v 1.420424 1.195015 -10.912208
v 1.235827 1.266823 -10.908862
v 1.038523 1.208000 -10.917121
v 1.387644 1.087932 -10.760736
v 1.237997 1.205193 -10.727881
v 1.042122 1.216830 -10.728469
v 0.949942 0.498542 -11.555973
v 0.945761 0.784507 -11.586022
v 0.984539 1.028938 -11.468282
v 1.218802 0.455726 -11.698559
v 1.226723 0.787498 -11.672935
v 1.225455 1.070780 -11.563166
v 1.573929 0.443554 -11.735179
v 1.542868 0.786592 -11.655702
v 1.501971 1.066737 -11.544176
vt 0.767544 0.773691
vt 0.791586 0.795636
vt 0.764156 0.801339
vt 0.794643 0.768467
vt 0.820403 0.791089
vt 0.774387 0.828584
vt 0.791826 0.825724
vt 0.459969 0.126829
vt 0.432052 0.109702
vt 0.453465 0.108027
vt 0.767574 0.746243
vt 0.794730 0.734276
vt 0.822168 0.762022
vt 0.853906 0.741974
vt 0.827859 0.729083
vt 0.853383 0.765453
vt 0.854875 0.824489
vt 0.817459 0.822346
vt 0.845200 0.846569
vt 0.822967 0.854920
vt 0.796944 0.853348
vt 0.433798 0.053291
vt 0.425341 0.022174
vt 0.442362 0.031551
vt 0.453780 0.036604
vt 0.452025 0.055196
vt 0.453728 0.079393
vt 0.523028 0.040506
vt 0.503981 0.072557
vt 0.498493 0.045397
vt 0.533845 0.093948
vt 0.532961 0.066283
vt 0.474521 0.052332
vt 0.481594 0.105138
vt 0.476780 0.075264
vt 0.533180 0.018319
vt 0.513768 0.016332
vt 0.173623 0.287188
vt 0.197253 0.314386
vt 0.175302 0.308319
vt 0.214797 0.285337
vt 0.193803 0.286540
vt 0.231372 0.281409
vt 0.224299 0.308405
vt 0.244366 0.292875
vt 0.236034 0.324347
vt 0.510595 0.102349
vt 0.481278 0.134237
vt 0.469794 0.031947
vt 0.489757 0.025398
vt 0.809485 0.557296
vt 0.842894 0.525472
vt 0.840786 0.557031
vt 0.814831 0.493312
vt 0.811048 0.525522
vt 0.868681 0.553902
vt 0.866869 0.495686
vt 0.871302 0.524960
vt 0.782332 0.580682
vt 0.807578 0.582769
vt 0.774747 0.558529
vt 0.784782 0.489521
vt 0.771639 0.522096
vt 0.798019 0.475147
vt 0.218522 0.200958
vt 0.203832 0.184824
vt 0.229692 0.181149
vt 0.245785 0.595255
vt 0.260873 0.570235
vt 0.269486 0.582922
vt 0.235231 0.573843
vt 0.244731 0.558120
vt 0.248761 0.534397
vt 0.272259 0.543322
vt 0.251601 0.511642
vt 0.271897 0.517328
vt 0.253167 0.491412
vt 0.272259 0.485241
vt 0.871302 0.587193
vt 0.837682 0.588187
vt 0.228068 0.507614
vt 0.201154 0.530484
vt 0.200309 0.501248
vt 0.222000 0.554349
vt 0.224772 0.532684
vt 0.180317 0.512472
vt 0.175088 0.552193
vt 0.175976 0.529451
vt 0.232478 0.479288
vt 0.221432 0.575308
vt 0.200720 0.553758
vt 0.177351 0.579325
vt 0.156417 0.579407
vt 0.151202 0.555730
vt 0.158642 0.535429
vt 0.480871 0.009705
vt 0.460693 0.020939
vt 0.284821 0.425833
vt 0.271925 0.436442
vt 0.270060 0.419345
vt 0.203769 0.484966
vt 0.214707 0.218048
vt 0.191313 0.241210
vt 0.195677 0.222856
vt 0.212817 0.263988
vt 0.212719 0.239188
vt 0.226347 0.598292
vt 0.203406 0.590002
vt 0.221219 0.579818
vt 0.173838 0.264666
vt 0.175338 0.243502
vt 0.236498 0.199339
vt 0.238466 0.240797
vt 0.238732 0.216237
vt 0.235635 0.265643
vt 0.193546 0.264357
vt 0.153634 0.288736
vt 0.151460 0.267086
vt 0.154139 0.243187
vt 0.164200 0.226353
vt 0.184444 0.230037
vt 0.169584 0.213968
vt 0.182076 0.210844
vt 0.239237 0.581567
vt 0.197267 0.204295
vt 0.799019 0.894422
vt 0.834309 0.924545
vt 0.802797 0.925340
vt 0.257312 0.272277
vt 0.289759 0.251101
vt 0.279429 0.282414
vt 0.834309 0.960148
vt 0.804519 0.965542
vt 0.266347 0.214172
vt 0.289759 0.216551
vt 0.772577 0.876953
vt 0.766386 0.893273
vt 0.792708 0.866709
vt 0.828777 0.892639
vt 0.267574 0.314867
vt 0.266613 0.244286
vt 0.255671 0.187157
vt 0.280879 0.179684
vt 0.796370 0.995408
vt 0.770873 0.986333
vt 0.764342 0.963350
vt 0.763852 0.926391
vt 0.443255 0.140236
vt 0.854875 0.791895
vt 0.412987 0.048069
vt 0.425744 0.080745
vt 0.533845 0.039072
vt 0.514965 0.135131
vt 0.842551 0.494737
vt 0.817695 0.476860
vt 0.201767 0.578514
vt 0.284821 0.443776
vt 0.446604 0.002072
vt 0.205510 0.605393
vt 0.825026 0.858893
vt 0.831488 0.997915
vn -0.3375 -0.9346 -0.1124
vn -0.1168 -0.9912 0.0616
vn -0.4621 -0.8580 0.2242
vn -0.1095 -0.9904 -0.0848
vn 0.1461 -0.9876 -0.0565
vn -0.4414 -0.7858 0.4332
vn -0.3535 -0.8723 0.3378
vn -0.7027 -0.5635 -0.4344
vn -0.7393 -0.6731 -0.0194
vn -0.5083 -0.6716 -0.5391
vn -0.1989 -0.8297 -0.5216
vn 0.1830 -0.9813 -0.0596
vn 0.7047 -0.6485 -0.2880
vn 0.2567 -0.8292 -0.4966
vn 0.7236 -0.6842 -0.0906
vn 0.7479 -0.5056 0.4302
vn 0.0888 -0.9380 0.3351
vn 0.5469 -0.1708 0.8195
vn 0.1230 -0.3829 0.9156
vn -0.2906 -0.5725 0.7667
vn -0.4169 -0.5311 0.7376
vn -0.5924 -0.4148 0.6907
vn -0.7729 -0.5708 0.2772
vn -0.8511 -0.4390 0.2881
vn -0.8926 0.3427 0.2928
vn -0.9654 -0.1935 0.1748
vn -0.8950 -0.1972 0.4002
vn -0.7834 0.5188 -0.3422
vn -0.8954 0.4413 0.0586
vn -0.9090 -0.3444 0.2346
vn -0.9463 -0.3153 0.0712
vn -0.9064 -0.3459 0.2424
vn -0.4879 0.7732 0.4052
vn -0.6660 0.1196 0.7363
vn -0.4321 0.9018 -0.0115
vn -0.4167 0.8805 -0.2261
vn -0.3473 0.9377 0.0134
vn -0.5046 0.7499 -0.4279
vn -0.5398 0.6295 -0.5589
vn -0.9921 0.1022 -0.0729
vn -0.7048 -0.4044 -0.5828
vn -0.6750 -0.1846 0.7144
vn -0.6353 -0.2582 0.7278
vn 0.9479 -0.3178 -0.0211
vn 0.9762 0.1368 0.1683
vn 0.9854 -0.1561 0.0686
vn 0.7548 0.6559 -0.0047
vn 0.9919 0.1264 -0.0127
vn 0.8889 -0.0365 0.4566
vn 0.6848 0.6302 0.3658
vn 0.8614 0.1504 0.4851
vn 0.8055 -0.2844 -0.5199
vn 0.5550 0.6807 -0.4782
vn 0.7095 0.1894 -0.6788
vn 0.3922 0.8983 -0.1983
vn 0.4529 0.8889 0.0684
vn 0.7607 0.6351 0.1339
vn 0.3330 0.9207 0.2034
vn 0.1828 0.9280 0.3246
vn 0.3821 0.4778 0.7910
vn 0.4512 0.1312 0.8827
vn 0.5440 0.0053 0.8391
vn 0.7377 -0.6693 -0.0880
vn 0.2494 0.0463 0.9673
vn 0.0971 0.1601 0.9823
vn -0.1185 -0.0987 0.9880
vn 0.1442 0.3836 0.9122
vn 0.1867 0.2019 0.9615
vn -0.4132 -0.2069 0.8868
vn -0.0449 0.2590 0.9648
vn -0.2363 -0.1925 0.9524
vn 0.4142 0.8234 0.3878
vn 0.2481 0.3170 0.9154
vn 0.0084 0.8416 0.5400
vn 0.2735 0.9615 0.0260
vn 0.0626 0.9732 0.2213
vn 0.2429 0.9005 0.3606
vn -0.3062 0.9498 -0.0643
vn -0.0228 0.9927 -0.1184
vn 0.2830 0.9450 0.1639
vn 0.2883 0.9314 0.2221
vn -0.0950 0.9951 0.0256
vn -0.0754 0.8866 -0.4564
vn 0.1426 0.9232 -0.3569
vn -0.3653 0.8193 -0.4419
vn -0.2238 0.9726 0.0632
vn 0.2666 0.7634 0.5884
vn 0.0999 0.9567 0.2734
vn -0.4510 -0.2195 -0.8651
vn -0.1518 0.2120 -0.9654
vn -0.2661 -0.2093 -0.9409
vn -0.4263 0.5505 -0.7178
vn -0.3407 0.1927 -0.9202
vn 0.2073 0.2582 -0.9436
vn 0.2821 -0.1788 -0.9426
vn 0.1950 0.6075 -0.7700
vn -0.7139 0.2470 -0.6552
vn -0.1649 0.6005 -0.7824
usemtl Material.001
s 1
f 45/1/1 49/2/2 48/3/3
f 46/4/4 50/5/5 49/2/2
f 49/2/2 51/6/6 48/3/3
f 50/5/5 52/7/7 49/2/2
f 6/8/8 45/9/1 36/10/9
f 26/11/10 46/4/4 45/1/1
f 25/12/11 47/13/12 46/4/4
f 2/14/13 47/13/12 24/15/14
f 17/16/15 50/5/5 47/13/12
f 50/5/5 15/17/16 53/18/17
f 53/18/17 4/19/18 14/20/19
f 52/7/7 14/20/19 13/21/20
f 51/22/6 13/23/20 12/24/21
f 51/22/6 8/25/22 38/26/23
f 37/27/24 51/22/6 38/26/23
f 45/9/1 37/27/24 36/10/9
f 54/28/25 58/29/26 57/30/27
f 56/31/28 58/29/26 55/32/29
f 58/29/26 60/33/30 57/30/27
f 58/29/26 62/34/31 61/35/32
f 7/36/33 54/28/25 44/37/34
f 39/38/35 55/39/29 54/40/25
f 41/41/36 55/39/29 40/42/37
f 5/43/38 56/44/28 41/41/36
f 33/45/39 59/46/40 56/44/28
f 59/47/40 35/48/41 62/34/31
f 62/34/31 6/8/8 36/10/9
f 62/34/31 37/27/24 61/35/32
f 61/35/32 38/26/23 60/33/30
f 60/33/30 8/25/22 42/49/42
f 43/50/43 60/33/30 42/49/42
f 44/37/34 57/30/27 43/50/43
f 63/51/44 67/52/45 66/53/46
f 65/54/47 67/52/45 64/55/48
f 67/52/45 69/56/49 66/53/46
f 67/52/45 71/57/50 70/58/51
f 2/59/13 63/51/44 17/60/15
f 29/61/52 64/55/48 63/51/44
f 27/62/53 64/55/48 28/63/54
f 1/64/55 65/54/47 27/62/53
f 30/65/56 68/66/57 65/67/47
f 31/68/58 71/69/50 68/70/57
f 71/69/50 3/71/59 18/72/60
f 71/69/50 19/73/61 70/74/51
f 70/74/51 20/75/62 69/76/49
f 69/76/49 4/77/18 15/78/16
f 66/53/46 15/79/16 16/80/63
f 17/60/15 66/53/46 16/80/63
f 72/81/64 76/82/65 75/83/66
f 74/84/67 76/82/65 73/85/68
f 76/82/65 78/86/69 75/83/66
f 76/82/65 80/87/70 79/88/71
f 4/77/18 72/81/64 14/89/19
f 19/73/61 72/81/64 20/75/62
f 19/73/61 74/84/67 73/85/68
f 3/71/59 74/84/67 18/72/60
f 9/90/72 77/91/73 74/84/67
f 77/91/73 11/92/74 80/87/70
f 80/87/70 7/93/33 44/94/34
f 79/88/71 44/94/34 43/95/43
f 79/96/71 42/49/42 78/97/69
f 78/98/69 8/99/22 12/100/21
f 13/23/20 78/97/69 12/24/21
f 72/81/64 13/101/20 14/89/19
f 81/102/75 85/103/76 84/104/77
f 83/105/78 85/103/76 82/106/79
f 84/107/77 88/108/80 87/109/81
f 85/103/76 89/110/82 88/111/80
f 1/112/55 81/102/75 30/65/56
f 22/113/83 81/102/75 23/114/84
f 22/113/83 83/105/78 82/106/79
f 5/43/38 83/105/78 21/115/85
f 83/105/78 40/42/37 86/116/86
f 86/116/86 39/38/35 89/110/82
f 89/110/82 7/117/33 11/118/74
f 89/110/82 10/119/87 88/111/80
f 88/111/80 9/120/72 87/121/81
f 87/121/81 3/122/59 32/123/88
f 84/107/77 32/124/88 31/68/58
f 81/102/75 31/125/58 30/65/56
f 90/126/89 94/127/90 93/128/91
f 92/129/92 94/130/90 91/131/93
f 93/128/91 97/132/94 96/133/95
f 94/130/90 98/134/96 97/135/94
f 6/136/8 90/126/89 26/137/10
f 35/138/41 91/139/93 90/126/89
f 33/45/39 91/131/93 34/140/97
f 5/43/38 92/129/92 33/45/39
f 92/129/92 22/113/83 95/141/98
f 95/141/98 23/114/84 98/134/96
f 98/134/96 1/112/55 27/142/53
f 97/135/94 27/142/53 28/143/54
f 97/132/94 29/144/52 96/133/95
f 96/133/95 2/145/13 24/146/14
f 93/128/91 24/146/14 25/147/11
f 90/126/89 25/147/11 26/137/10
f 45/1/1 46/4/4 49/2/2
f 46/4/4 47/13/12 50/5/5
f 49/2/2 52/7/7 51/6/6
f 50/5/5 53/18/17 52/7/7
f 6/8/8 26/148/10 45/9/1
f 26/11/10 25/12/11 46/4/4
f 25/12/11 24/15/14 47/13/12
f 2/14/13 17/16/15 47/13/12
f 17/16/15 16/149/63 50/5/5
f 50/5/5 16/149/63 15/17/16
f 53/18/17 15/17/16 4/19/18
f 52/7/7 53/18/17 14/20/19
f 51/22/6 52/150/7 13/23/20
f 51/22/6 12/24/21 8/25/22
f 37/27/24 48/151/3 51/22/6
f 45/9/1 48/151/3 37/27/24
f 54/28/25 55/32/29 58/29/26
f 56/31/28 59/47/40 58/29/26
f 58/29/26 61/35/32 60/33/30
f 58/29/26 59/47/40 62/34/31
f 7/36/33 39/152/35 54/28/25
f 39/38/35 40/42/37 55/39/29
f 41/41/36 56/44/28 55/39/29
f 5/43/38 33/45/39 56/44/28
f 33/45/39 34/140/97 59/46/40
f 59/47/40 34/153/97 35/48/41
f 62/34/31 35/48/41 6/8/8
f 62/34/31 36/10/9 37/27/24
f 61/35/32 37/27/24 38/26/23
f 60/33/30 38/26/23 8/25/22
f 43/50/43 57/30/27 60/33/30
f 44/37/34 54/28/25 57/30/27
f 63/51/44 64/55/48 67/52/45
f 65/54/47 68/154/57 67/52/45
f 67/52/45 70/58/51 69/56/49
f 67/52/45 68/154/57 71/57/50
f 2/59/13 29/61/52 63/51/44
f 29/61/52 28/63/54 64/55/48
f 27/62/53 65/54/47 64/55/48
f 1/64/55 30/155/56 65/54/47
f 30/65/56 31/125/58 68/66/57
f 31/68/58 32/124/88 71/69/50
f 71/69/50 32/124/88 3/71/59
f 71/69/50 18/72/60 19/73/61
f 70/74/51 19/73/61 20/75/62
f 69/76/49 20/75/62 4/77/18
f 66/53/46 69/56/49 15/79/16
f 17/60/15 63/51/44 66/53/46
f 72/81/64 73/85/68 76/82/65
f 74/84/67 77/91/73 76/82/65
f 76/82/65 79/88/71 78/86/69
f 76/82/65 77/91/73 80/87/70
f 4/77/18 20/75/62 72/81/64
f 19/73/61 73/85/68 72/81/64
f 19/73/61 18/72/60 74/84/67
f 3/71/59 9/90/72 74/84/67
f 9/90/72 10/156/87 77/91/73
f 77/91/73 10/156/87 11/92/74
f 80/87/70 11/92/74 7/93/33
f 79/88/71 80/87/70 44/94/34
f 79/96/71 43/50/43 42/49/42
f 78/98/69 42/157/42 8/99/22
f 13/23/20 75/158/66 78/97/69
f 72/81/64 75/83/66 13/101/20
f 81/102/75 82/106/79 85/103/76
f 83/105/78 86/116/86 85/103/76
f 84/107/77 85/159/76 88/108/80
f 85/103/76 86/116/86 89/110/82
f 1/112/55 23/114/84 81/102/75
f 22/113/83 82/106/79 81/102/75
f 22/113/83 21/115/85 83/105/78
f 5/43/38 41/41/36 83/105/78
f 83/105/78 41/41/36 40/42/37
f 86/116/86 40/42/37 39/38/35
f 89/110/82 39/38/35 7/117/33
f 89/110/82 11/118/74 10/119/87
f 88/111/80 10/119/87 9/120/72
f 87/121/81 9/120/72 3/122/59
f 84/107/77 87/109/81 32/124/88
f 81/102/75 84/104/77 31/125/58
f 90/126/89 91/139/93 94/127/90
f 92/129/92 95/141/98 94/130/90
f 93/128/91 94/127/90 97/132/94
f 94/130/90 95/141/98 98/134/96
f 6/136/8 35/138/41 90/126/89
f 35/138/41 34/160/97 91/139/93
f 33/45/39 92/129/92 91/131/93
f 5/43/38 21/115/85 92/129/92
f 92/129/92 21/115/85 22/113/83
f 95/141/98 22/113/83 23/114/84
f 98/134/96 23/114/84 1/112/55
f 97/135/94 98/134/96 27/142/53
f 97/132/94 28/161/54 29/144/52
f 96/133/95 29/144/52 2/145/13
f 93/128/91 96/133/95 24/146/14
f 90/126/89 93/128/91 25/147/11
