# Blender v3.6.1 OBJ File: 'RocksHells.blend'
# www.blender.org
mtllib RockHell2.mtl
v 1.537214 1.080735 -8.334723
v 1.650607 0.357931 -8.446645
v 1.553140 1.105266 -7.661302
v 1.657676 0.340377 -7.564866
v 0.845922 1.156261 -8.391479
v 0.851554 0.419705 -8.354225
v 0.763391 1.224133 -7.548285
v 0.801183 0.388051 -7.618651
v 1.422963 1.142624 -7.629390
v 1.233852 1.220085 -7.558623
v 0.973241 1.308692 -7.447960
v 0.964637 0.304257 -7.530364
v 1.221082 0.208785 -7.411262
v 1.481302 0.292028 -7.520944
v 1.754047 0.245320 -7.723954
v 1.904643 0.079181 -8.005013
v 1.787236 0.214536 -8.327707
v 1.585019 0.972598 -7.641623
v 1.656354 0.787504 -7.563296
v 1.714528 0.534351 -7.497309
v 0.996634 1.207681 -8.456883
v 1.238420 1.238825 -8.487518
v 1.437354 1.145342 -8.401879
v 1.472011 0.282883 -8.520094
v 1.216127 0.294864 -8.486782
v 0.986482 0.335949 -8.439138
v 1.553029 0.955026 -8.350107
v 1.602571 0.787328 -8.399401
v 1.665120 0.560857 -8.459298
v 1.649982 1.196844 -8.257421
v 1.817767 1.389100 -8.027389
v 1.677123 1.231222 -7.754521
v 0.778411 1.013758 -8.479939
v 0.777287 0.770326 -8.457489
v 0.819261 0.566347 -8.401611
v 0.854661 0.413955 -8.202517
v 0.809772 0.381533 -8.016599
v 0.802596 0.374556 -7.803823
v 0.691777 1.300270 -7.733059
v 0.645595 1.357789 -8.014186
v 0.733582 1.277821 -8.283255
v 0.794974 0.559321 -7.596468
v 0.743207 0.762779 -7.540786
v 0.719209 1.018667 -7.504368
v 0.996716 0.277506 -8.234842
v 1.222638 0.223798 -8.254360
v 1.485019 0.147476 -8.291186
v 0.944955 0.171485 -8.024566
v 1.217248 0.075003 -8.020260
v 1.527343 0.025890 -8.017868
v 0.936002 0.164402 -7.745625
v 1.209077 -0.062199 -7.675213
v 1.521108 0.103727 -7.711322
v 0.596776 1.033652 -7.738869
v 0.544538 1.052870 -8.006124
v 0.539790 1.052866 -8.315060
v 0.681443 0.772468 -7.775763
v 0.645492 0.770889 -8.008636
v 0.638719 0.759351 -8.260588
v 0.749333 0.567660 -7.805787
v 0.761258 0.571023 -8.011477
v 0.769876 0.570186 -8.213073
v 1.849496 0.510182 -8.293846
v 1.817043 0.788692 -8.286229
v 1.720418 1.002211 -8.237843
v 2.053783 0.445187 -8.022389
v 2.022640 0.789132 -8.025849
v 1.945840 1.085143 -8.028328
v 1.924115 0.474317 -7.693897
v 1.958202 0.794393 -7.670770
v 1.820459 1.049950 -7.726650
v 1.476655 0.542322 -7.418960
v 1.423776 0.769173 -7.597105
v 1.392875 0.948116 -7.660008
v 1.223983 0.524064 -7.391900
v 1.234849 0.785812 -7.441949
v 1.232900 0.999915 -7.507584
v 0.976792 0.536410 -7.458366
v 0.970181 0.773941 -7.401983
v 0.979493 1.027841 -7.404324
v 1.466645 1.319810 -8.265048
v 1.226030 1.361087 -8.267464
v 0.970019 1.367409 -8.277690
v 1.497442 1.418759 -8.014048
v 1.228746 1.506876 -8.020727
v 0.937480 1.450565 -8.014658
v 1.489187 1.370434 -7.728334
v 1.233375 1.446646 -7.715457
v 0.928147 1.486833 -7.707118
v 0.969647 0.534156 -8.563222
v 0.970551 0.783088 -8.594712
v 1.003797 0.997518 -8.498249
v 1.223974 0.520151 -8.630195
v 1.232356 0.782832 -8.601480
v 1.238816 1.013815 -8.569009
v 1.471738 0.551991 -8.572763
v 1.430738 0.780198 -8.468449
v 1.422696 0.965992 -8.431167
vt 0.064858 0.387189
vt 0.100622 0.386008
vt 0.085638 0.402419
vt 0.040939 0.368853
vt 0.077614 0.363523
vt 0.202694 0.016727
vt 0.227364 0.037235
vt 0.197269 0.037578
vt 0.172277 0.960548
vt 0.194274 0.923200
vt 0.203816 0.961859
vt 0.161327 0.067449
vt 0.176274 0.046743
vt 0.177846 0.066750
vt 0.078960 0.417291
vt 0.056560 0.404272
vt 0.011690 0.386742
vt 0.030706 0.391978
vt 0.007103 0.361625
vt 0.048822 0.343576
vt 0.160642 0.932296
vt 0.189111 0.893169
vt 0.211261 0.894890
vt 0.220334 0.913990
vt 0.237954 0.941934
vt 0.270000 0.030876
vt 0.252414 0.050976
vt 0.240032 0.066216
vt 0.219823 0.064692
vt 0.196886 0.065107
vt 0.227520 0.142558
vt 0.197236 0.112765
vt 0.223322 0.111578
vt 0.197511 0.146577
vt 0.169610 0.111756
vt 0.219942 0.087226
vt 0.176098 0.086607
vt 0.197848 0.087074
vt 0.253142 0.156269
vt 0.255461 0.136239
vt 0.232124 0.167091
vt 0.028050 0.543339
vt 0.028325 0.508658
vt 0.048570 0.517532
vt 0.019873 0.561123
vt 0.003131 0.528212
vt 0.070479 0.491296
vt 0.100622 0.465288
vt 0.096879 0.499399
vt 0.156596 0.084233
vt 0.243594 0.084605
vt 0.250090 0.108189
vt 0.773515 0.261663
vt 0.791842 0.222113
vt 0.807716 0.257535
vt 0.761554 0.232438
vt 0.777198 0.191183
vt 0.836654 0.238293
vt 0.806324 0.179820
vt 0.825821 0.204646
vt 0.760702 0.282670
vt 0.781634 0.293059
vt 0.750954 0.262539
vt 0.745856 0.235991
vt 0.755161 0.207465
vt 0.420141 0.146960
vt 0.434055 0.166514
vt 0.417721 0.158751
vt 0.743323 0.187788
vt 0.147210 0.110476
vt 0.112757 0.115760
vt 0.126890 0.094091
vt 0.096667 0.100258
vt 0.099084 0.085454
vt 0.104279 0.061965
vt 0.139461 0.063638
vt 0.107990 0.032379
vt 0.134748 0.032885
vt 0.192893 0.864117
vt 0.154228 0.858924
vt 0.150695 0.891982
vt 0.822213 0.293059
vt 0.080464 0.032722
vt 0.055809 0.061819
vt 0.052315 0.033100
vt 0.079629 0.064997
vt 0.058022 0.086656
vt 0.026106 0.062386
vt 0.026926 0.041014
vt 0.028363 0.088029
vt 0.237954 0.899805
vt 0.078470 0.086553
vt 0.081996 0.104310
vt 0.060264 0.111361
vt 0.008896 0.117844
vt 0.002176 0.095574
vt 0.004369 0.071139
vt 0.262231 0.075108
vt 0.026068 0.021202
vt 0.050935 0.002213
vt 0.081996 0.012291
vt 0.062081 0.587571
vt 0.101155 0.596074
vt 0.074246 0.609792
vt 0.046670 0.564546
vt 0.089319 0.571380
vt 0.111244 0.552248
vt 0.121339 0.576977
vt 0.070086 0.544245
vt 0.108502 0.366678
vt 0.111649 0.395282
vt 0.102611 0.380883
vt 0.039033 0.603355
vt 0.052914 0.616506
vt 0.025901 0.579121
vt 0.071099 0.503795
vt 0.096133 0.523361
vt 0.031481 0.149768
vt 0.029948 0.118609
vt 0.064667 0.141844
vt 0.092407 0.131190
vt 0.099706 0.149768
vt 0.134691 0.142939
vt 0.079475 0.626646
vt 0.117259 0.626646
vt 0.069203 0.441708
vt 0.031713 0.453099
vt 0.042720 0.430794
vt 0.048227 0.479461
vt 0.057960 0.465788
vt 0.018195 0.418895
vt 0.130952 0.327652
vt 0.116444 0.351870
vt 0.113209 0.330767
vt 0.091113 0.427869
vt 0.081283 0.468129
vt 0.087017 0.444954
vt 0.012632 0.583143
vt 0.001793 0.561069
vt 0.041276 0.497181
vt 0.022311 0.472438
vt 0.136066 0.353173
vt 0.119803 0.371756
vt 0.105095 0.352693
vt 0.428027 0.331174
vt 0.414959 0.320068
vt 0.428027 0.311888
vt 0.361002 0.144411
vt 0.380007 0.172083
vt 0.364548 0.167795
vt 0.239021 0.002585
vt 0.154280 0.053291
vt 0.009351 0.329190
vt 0.163816 0.146698
vt 0.201019 0.174929
vt 0.151168 0.107467
vt 0.742509 0.216079
vt 0.434055 0.144329
vt 0.761492 0.158847
vt 0.221702 0.878127
vt 0.270000 0.100539
vt 0.005458 0.135470
vt 0.015490 0.437156
vt 0.015104 0.489405
vt 0.136066 0.380090
vt 0.411916 0.335068
vt 0.380007 0.152283
vt 0.001487 0.405114
vn -0.2787 -0.8757 -0.3943
vn -0.5883 -0.7638 -0.2656
vn -0.4828 -0.8124 -0.3270
vn -0.0078 -0.8709 -0.4915
vn -0.2156 -0.9240 -0.3158
vn -0.6798 -0.7157 0.1603
vn 0.4073 -0.8281 0.3853
vn -0.0985 -0.9715 0.2155
vn -0.7886 -0.5384 -0.2970
vn -0.8151 -0.5659 -0.1244
vn -0.4501 -0.7264 -0.5194
vn -0.2169 -0.7605 -0.6121
vn 0.4871 -0.3182 -0.8133
vn 0.2255 -0.6036 -0.7648
vn 0.4857 -0.5386 -0.6885
vn 0.0466 -0.9981 -0.0405
vn 0.5373 -0.6374 0.5523
vn 0.4256 -0.4988 0.7550
vn 0.3664 -0.4498 0.8145
vn -0.0431 -0.4311 0.9013
vn -0.5198 -0.4541 0.7236
vn -0.8286 -0.3493 0.4376
vn -0.9122 -0.4094 -0.0127
vn -0.8929 -0.4101 -0.1856
vn -0.9535 0.0102 0.3012
vn -0.9123 -0.4046 0.0638
vn -0.9279 -0.3250 0.1826
vn -0.9972 0.0496 0.0555
vn -0.8737 -0.4054 -0.2689
vn -0.9507 -0.3019 0.0714
vn -0.8609 -0.5019 -0.0825
vn -0.9118 -0.4031 -0.0781
vn -0.6377 0.4071 0.6539
vn -0.6802 0.0783 0.7288
vn -0.7501 0.5839 0.3104
vn -0.4922 0.6607 -0.5667
vn -0.7007 0.7095 -0.0755
vn -0.3190 0.5002 -0.8050
vn -0.8764 0.1696 -0.4508
vn -0.4158 0.2819 -0.8646
vn -0.8016 -0.3650 -0.4736
vn -0.8259 -0.2350 0.5125
vn -0.7665 -0.2615 0.5866
vn 0.7357 0.0049 -0.6773
vn 0.9686 0.1746 -0.1768
vn 0.9842 -0.1608 -0.0745
vn 0.6255 0.2556 -0.7372
vn 0.9179 0.3672 -0.1505
vn 0.7913 -0.3151 0.5239
vn 0.5997 0.4707 0.6472
vn 0.7877 0.2259 0.5732
vn 0.5606 0.1055 -0.8213
vn 0.4002 0.3694 -0.8387
vn 0.5370 0.2733 -0.7981
vn 0.5247 0.2059 -0.8260
vn 0.4804 0.2533 -0.8397
vn 0.4591 0.4037 -0.7913
vn 0.4861 0.5586 0.6720
vn 0.2234 0.1895 0.9561
vn 0.0405 0.2866 0.9572
vn 0.1258 0.3933 0.9108
vn 0.4412 -0.0921 0.8927
vn 0.6200 -0.7802 0.0823
vn 0.2277 0.0423 0.9728
vn 0.3598 0.2602 0.8960
vn -0.0122 -0.0599 0.9981
vn 0.2462 0.4809 0.8415
vn 0.5028 0.1910 0.8430
vn -0.2219 -0.0759 0.9721
vn -0.4131 -0.2436 0.8775
vn -0.0196 0.1395 0.9900
vn 0.3678 0.1365 0.9198
vn 0.3915 0.0939 0.9154
vn 0.4090 0.3297 0.8509
vn 0.0883 0.8593 -0.5039
vn 0.2971 0.9480 -0.1139
vn 0.3855 0.7405 -0.5505
vn -0.1777 0.8201 -0.5439
vn 0.0836 0.9867 -0.1392
vn 0.2143 0.8711 0.4418
vn 0.4310 0.7094 0.5576
vn -0.2561 0.9565 -0.1399
vn 0.1281 0.6128 -0.7798
vn 0.5937 0.2919 -0.7498
vn -0.3078 0.5031 -0.8076
vn -0.2573 0.9380 0.2322
vn -0.0570 0.4955 0.8667
vn 0.6002 0.7959 -0.0796
vn -0.4475 -0.2967 -0.8436
vn 0.1698 0.1863 -0.9677
vn -0.0592 -0.1818 -0.9816
vn -0.1842 0.3126 -0.9319
vn -0.2514 0.0909 -0.9636
vn 0.3843 0.0888 -0.9189
vn 0.5720 0.1343 -0.8092
vn 0.4547 0.3377 -0.8241
vn -0.7164 -0.1579 -0.6796
vn 0.1763 0.1960 -0.9646
usemtl Material.001
s 1
f 46/1/1 48/2/2 45/3/3
f 47/4/4 49/5/5 46/1/1
f 49/6/5 51/7/6 48/8/2
f 49/9/5 53/10/7 52/11/8
f 6/12/9 45/13/3 36/14/10
f 26/15/11 46/1/1 45/3/3
f 25/16/12 47/4/4 46/1/1
f 2/17/13 47/4/4 24/18/14
f 17/19/15 50/20/16 47/4/4
f 50/21/16 15/22/17 53/10/7
f 53/10/7 4/23/18 14/24/19
f 53/10/7 13/25/20 52/11/8
f 51/7/6 13/26/20 12/27/21
f 51/7/6 8/28/22 38/29/23
f 48/8/2 38/29/23 37/30/24
f 45/13/3 37/30/24 36/14/10
f 54/31/25 58/32/26 57/33/27
f 55/34/28 59/35/29 58/32/26
f 58/32/26 60/36/30 57/33/27
f 58/32/26 62/37/31 61/38/32
f 7/39/33 54/31/25 44/40/34
f 39/41/35 55/34/28 54/31/25
f 41/42/36 55/43/28 40/44/37
f 5/45/38 56/46/39 41/42/36
f 33/47/40 59/48/29 56/49/39
f 59/35/29 35/50/41 62/37/31
f 62/37/31 6/12/9 36/14/10
f 61/38/32 36/14/10 37/30/24
f 60/36/30 37/30/24 38/29/23
f 60/36/30 8/28/22 42/51/42
f 57/33/27 42/51/42 43/52/43
f 54/31/25 43/52/43 44/40/34
f 63/53/44 67/54/45 66/55/46
f 64/56/47 68/57/48 67/54/45
f 67/54/45 69/58/49 66/55/46
f 67/54/45 71/59/50 70/60/51
f 2/61/13 63/53/44 17/62/15
f 29/63/52 64/56/47 63/53/44
f 28/64/53 65/65/54 64/56/47
f 1/66/55 65/67/54 27/68/56
f 30/69/57 68/57/48 65/65/54
f 68/70/48 32/71/58 71/72/50
f 71/72/50 3/73/59 18/74/60
f 71/72/50 19/75/61 70/76/51
f 70/76/51 20/77/62 69/78/49
f 69/79/49 4/23/18 15/22/17
f 66/80/46 15/22/17 16/81/63
f 17/62/15 66/55/46 16/82/63
f 72/83/64 76/84/65 75/85/66
f 73/86/67 77/87/68 76/84/65
f 75/85/66 79/88/69 78/89/70
f 76/84/65 80/90/71 79/88/69
f 4/23/18 72/91/64 14/24/19
f 19/75/61 72/83/64 20/77/62
f 18/74/60 73/86/67 19/75/61
f 3/73/59 74/92/72 18/74/60
f 9/93/73 77/87/68 74/92/72
f 10/94/74 80/90/71 77/87/68
f 80/90/71 7/95/33 44/96/34
f 79/88/69 44/96/34 43/97/43
f 78/98/70 43/52/43 42/51/42
f 78/98/70 8/28/22 12/27/21
f 75/85/66 12/99/21 13/100/20
f 14/101/19 75/85/66 13/100/20
f 82/102/75 84/103/76 81/104/77
f 83/105/78 85/106/79 82/102/75
f 84/103/76 88/107/80 87/108/81
f 86/109/82 88/107/80 85/106/79
f 1/110/55 81/111/77 30/112/57
f 22/113/83 81/104/77 23/114/84
f 21/115/85 82/102/75 22/113/83
f 5/45/38 83/105/78 21/115/85
f 41/42/36 86/109/82 83/105/78
f 86/109/82 39/116/35 89/117/86
f 89/118/86 7/95/33 11/119/87
f 88/120/80 11/119/87 10/94/74
f 87/121/81 10/94/74 9/93/73
f 87/121/81 3/73/59 32/71/58
f 84/122/76 32/71/58 31/123/88
f 30/124/57 84/103/76 31/125/88
f 90/126/89 94/127/90 93/128/91
f 92/129/92 94/127/90 91/130/93
f 94/127/90 96/131/94 93/128/91
f 94/132/90 98/133/95 97/134/96
f 6/135/9 90/126/89 26/15/11
f 34/136/97 90/126/89 35/137/41
f 33/47/40 91/130/93 34/136/97
f 5/45/38 92/138/92 33/139/40
f 21/140/85 95/141/98 92/129/92
f 95/142/98 23/143/84 98/133/95
f 98/133/95 1/110/55 27/144/56
f 97/145/96 27/146/56 28/147/53
f 96/148/94 28/149/53 29/150/52
f 96/131/94 2/17/13 24/18/14
f 93/128/91 24/18/14 25/16/12
f 90/126/89 25/16/12 26/15/11
f 46/1/1 49/5/5 48/2/2
f 47/4/4 50/20/16 49/5/5
f 49/6/5 52/151/8 51/7/6
f 49/9/5 50/21/16 53/10/7
f 6/12/9 26/152/11 45/13/3
f 26/15/11 25/16/12 46/1/1
f 25/16/12 24/18/14 47/4/4
f 2/17/13 17/19/15 47/4/4
f 17/19/15 16/153/63 50/20/16
f 50/21/16 16/81/63 15/22/17
f 53/10/7 15/22/17 4/23/18
f 53/10/7 14/24/19 13/25/20
f 51/7/6 52/151/8 13/26/20
f 51/7/6 12/27/21 8/28/22
f 48/8/2 51/7/6 38/29/23
f 45/13/3 48/8/2 37/30/24
f 54/31/25 55/34/28 58/32/26
f 55/34/28 56/154/39 59/35/29
f 58/32/26 61/38/32 60/36/30
f 58/32/26 59/35/29 62/37/31
f 7/39/33 39/41/35 54/31/25
f 39/41/35 40/155/37 55/34/28
f 41/42/36 56/46/39 55/43/28
f 5/45/38 33/139/40 56/46/39
f 33/47/40 34/136/97 59/48/29
f 59/35/29 34/156/97 35/50/41
f 62/37/31 35/50/41 6/12/9
f 61/38/32 62/37/31 36/14/10
f 60/36/30 61/38/32 37/30/24
f 60/36/30 38/29/23 8/28/22
f 57/33/27 60/36/30 42/51/42
f 54/31/25 57/33/27 43/52/43
f 63/53/44 64/56/47 67/54/45
f 64/56/47 65/65/54 68/57/48
f 67/54/45 70/60/51 69/58/49
f 67/54/45 68/57/48 71/59/50
f 2/61/13 29/63/52 63/53/44
f 29/63/52 28/64/53 64/56/47
f 28/64/53 27/157/56 65/65/54
f 1/66/55 30/158/57 65/67/54
f 30/69/57 31/159/88 68/57/48
f 68/70/48 31/123/88 32/71/58
f 71/72/50 32/71/58 3/73/59
f 71/72/50 18/74/60 19/75/61
f 70/76/51 19/75/61 20/77/62
f 69/79/49 20/160/62 4/23/18
f 66/80/46 69/79/49 15/22/17
f 17/62/15 63/53/44 66/55/46
f 72/83/64 73/86/67 76/84/65
f 73/86/67 74/92/72 77/87/68
f 75/85/66 76/84/65 79/88/69
f 76/84/65 77/87/68 80/90/71
f 4/23/18 20/160/62 72/91/64
f 19/75/61 73/86/67 72/83/64
f 18/74/60 74/92/72 73/86/67
f 3/73/59 9/93/73 74/92/72
f 9/93/73 10/94/74 77/87/68
f 10/94/74 11/119/87 80/90/71
f 80/90/71 11/119/87 7/95/33
f 79/88/69 80/90/71 44/96/34
f 78/98/70 79/161/69 43/52/43
f 78/98/70 42/51/42 8/28/22
f 75/85/66 78/89/70 12/99/21
f 14/101/19 72/83/64 75/85/66
f 82/102/75 85/106/79 84/103/76
f 83/105/78 86/109/82 85/106/79
f 84/103/76 85/106/79 88/107/80
f 86/109/82 89/117/86 88/107/80
f 1/110/55 23/143/84 81/111/77
f 22/113/83 82/102/75 81/104/77
f 21/115/85 83/105/78 82/102/75
f 5/45/38 41/42/36 83/105/78
f 41/42/36 40/44/37 86/109/82
f 86/109/82 40/44/37 39/116/35
f 89/118/86 39/162/35 7/95/33
f 88/120/80 89/118/86 11/119/87
f 87/121/81 88/120/80 10/94/74
f 87/121/81 9/93/73 3/73/59
f 84/122/76 87/121/81 32/71/58
f 30/124/57 81/104/77 84/103/76
f 90/126/89 91/130/93 94/127/90
f 92/129/92 95/141/98 94/127/90
f 94/127/90 97/163/96 96/131/94
f 94/132/90 95/142/98 98/133/95
f 6/135/9 35/137/41 90/126/89
f 34/136/97 91/130/93 90/126/89
f 33/47/40 92/129/92 91/130/93
f 5/45/38 21/115/85 92/138/92
f 21/140/85 22/164/83 95/141/98
f 95/142/98 22/165/83 23/143/84
f 98/133/95 23/143/84 1/110/55
f 97/145/96 98/166/95 27/146/56
f 96/148/94 97/167/96 28/149/53
f 96/131/94 29/168/52 2/17/13
f 93/128/91 96/131/94 24/18/14
f 90/126/89 93/128/91 25/16/12
