# Blender v3.6.1 OBJ File: 'RocksHells.blend'
# www.blender.org
mtllib RockHell3.mtl
v -0.990331 1.170971 -8.411332
v -0.986209 0.399972 -8.387364
v -0.963872 1.202444 -7.583254
v -1.047078 0.445769 -7.684182
v -1.804646 1.209003 -8.413894
v -1.726016 0.430206 -8.329873
v -1.692639 1.083606 -7.674975
v -1.702720 0.466103 -7.691143
v -1.154552 1.236846 -7.535649
v -1.393779 1.194715 -7.567845
v -1.570802 1.127787 -7.642196
v -1.603808 0.370054 -7.590247
v -1.372237 0.357892 -7.584957
v -1.170405 0.394608 -7.627083
v -1.010377 0.411322 -7.814635
v -0.965028 0.369461 -8.007211
v -0.981997 0.386052 -8.214974
v -0.892138 1.031293 -7.490785
v -0.893723 0.758797 -7.512359
v -0.983584 0.559357 -7.615702
v -1.630500 1.273719 -8.494379
v -1.367236 1.278756 -8.510539
v -1.147302 1.209858 -8.446408
v -1.156487 0.344933 -8.449275
v -1.381406 0.348635 -8.434319
v -1.586541 0.376148 -8.397485
v -0.930142 1.009538 -8.476050
v -0.947948 0.775232 -8.442480
v -0.969234 0.565553 -8.420135
v -0.899508 1.264418 -8.275251
v -0.817874 1.348152 -8.011407
v -0.899299 1.258987 -7.755731
v -1.899920 1.044595 -8.511273
v -1.892964 0.761239 -8.508820
v -1.794280 0.551267 -8.406574
v -1.710040 0.448222 -8.180773
v -1.669183 0.482607 -8.008565
v -1.764148 0.406755 -7.822329
v -1.818080 1.200068 -7.762873
v -1.846507 1.235995 -8.010513
v -1.759356 1.161927 -8.214264
v -1.733108 0.598699 -7.657646
v -1.723248 0.783618 -7.654673
v -1.692924 0.948217 -7.686254
v -1.599566 0.299337 -8.219465
v -1.380088 0.266939 -8.234786
v -1.140105 0.231259 -8.246797
v -1.616626 0.261749 -8.016462
v -1.378713 0.212026 -8.013384
v -1.124309 0.201097 -8.001314
v -1.620337 0.251122 -7.783428
v -1.367473 0.183109 -7.755497
v -1.164763 0.315315 -7.799325
v -1.873507 0.988760 -7.771232
v -1.947482 1.020129 -8.002289
v -1.963109 1.033520 -8.251921
v -1.865018 0.773388 -7.783519
v -1.963763 0.762464 -8.002544
v -1.938666 0.767083 -8.250103
v -1.835128 0.572830 -7.805254
v -1.838914 0.559208 -8.013447
v -1.793704 0.586127 -8.201497
v -0.865304 0.542346 -8.238522
v -0.703574 0.753110 -8.312401
v -0.726748 1.061054 -8.308442
v -0.840096 0.535142 -8.008096
v -0.678910 0.762277 -8.007857
v -0.666869 1.076108 -8.011358
v -0.898299 0.559353 -7.794343
v -0.735614 0.758408 -7.732371
v -0.695828 1.068868 -7.708188
v -1.166316 0.566171 -7.544197
v -1.147044 0.771992 -7.443921
v -1.161227 1.005450 -7.480076
v -1.377162 0.551025 -7.469916
v -1.390489 0.785427 -7.491007
v -1.387725 0.979746 -7.554350
v -1.600924 0.579938 -7.522563
v -1.571723 0.785610 -7.587972
v -1.533463 0.939195 -7.693194
v -1.118590 1.375173 -8.279947
v -1.375785 1.390745 -8.276532
v -1.647260 1.382528 -8.274034
v -1.097224 1.446707 -8.010520
v -1.377069 1.471210 -8.008530
v -1.671287 1.447880 -8.007980
v -1.119449 1.376969 -7.743429
v -1.379209 1.369955 -7.745605
v -1.631749 1.347608 -7.735213
v -1.615031 0.523731 -8.551962
v -1.651347 0.761689 -8.683172
v -1.657332 1.069669 -8.690158
v -1.374177 0.537827 -8.557093
v -1.373942 0.776231 -8.605149
v -1.361156 1.040793 -8.639141
v -1.154138 0.558032 -8.511909
v -1.138658 0.774744 -8.553180
v -1.139771 1.009807 -8.541980
vt 0.571434 0.720794
vt 0.583201 0.699899
vt 0.591618 0.721296
vt 0.552609 0.678584
vt 0.562213 0.700659
vt 0.615281 0.718662
vt 0.601712 0.670076
vt 0.608406 0.696303
vt 0.776455 0.376934
vt 0.783934 0.354845
vt 0.792753 0.373083
vt 0.309963 0.658810
vt 0.294902 0.684505
vt 0.293297 0.659547
vt 0.317342 0.707023
vt 0.312866 0.681990
vt 0.538587 0.656895
vt 0.535777 0.677631
vt 0.555698 0.654552
vt 0.576367 0.674781
vt 0.575964 0.650527
vt 0.613835 0.650041
vt 0.621903 0.664077
vt 0.631260 0.685482
vt 0.638131 0.708149
vt 0.827154 0.336564
vt 0.844311 0.358329
vt 0.827903 0.359490
vt 0.803412 0.345161
vt 0.812286 0.368998
vt 0.854675 0.420031
vt 0.821217 0.409278
vt 0.845189 0.398803
vt 0.831288 0.433999
vt 0.795915 0.416830
vt 0.835470 0.378417
vt 0.795209 0.391033
vt 0.813311 0.384125
vt 0.076746 0.740195
vt 0.078681 0.758594
vt 0.064296 0.743696
vt 0.864130 0.438199
vt 0.590040 0.028129
vt 0.605783 0.001982
vt 0.614141 0.018457
vt 0.571679 0.026204
vt 0.580833 0.002958
vt 0.805769 0.444262
vt 0.769225 0.422819
vt 0.772583 0.394401
vt 0.852632 0.371638
vt 0.860134 0.389367
vt 0.058294 0.763417
vt 0.048462 0.752561
vt 0.554421 0.635432
vt 0.578969 0.602304
vt 0.577039 0.629771
vt 0.114104 0.968847
vt 0.148250 0.935782
vt 0.148273 0.970236
vt 0.601430 0.631151
vt 0.113997 0.934661
vt 0.148273 0.905881
vt 0.147448 0.416027
vt 0.132253 0.398403
vt 0.147448 0.396655
vt 0.362620 0.722269
vt 0.331210 0.736659
vt 0.340723 0.723888
vt 0.387413 0.719757
vt 0.358356 0.750428
vt 0.097536 0.983934
vt 0.116114 0.990924
vt 0.089024 0.966934
vt 0.090614 0.908891
vt 0.114896 0.901254
vt 0.037952 0.635600
vt 0.055988 0.663843
vt 0.033058 0.664244
vt 0.116225 0.880134
vt 0.146065 0.883722
vt 0.608795 0.603997
vt 0.622323 0.636982
vt 0.598323 0.650061
vt 0.001508 0.704277
vt 0.028969 0.723169
vt 0.005205 0.729120
vt 0.040612 0.693383
vt 0.016286 0.699710
vt 0.018829 0.749907
vt 0.050017 0.715297
vt 0.040019 0.738888
vt 0.635413 0.653860
vt 0.651269 0.640151
vt 0.007992 0.671434
vt 0.071330 0.709388
vt 0.288556 0.395629
vt 0.276280 0.418433
vt 0.270115 0.396984
vt 0.057520 0.727100
vt 0.031313 0.758737
vt 0.867030 0.359551
vt 0.851911 0.341194
vt 0.648984 0.674605
vt 0.591962 0.104336
vt 0.624073 0.075758
vt 0.622585 0.105892
vt 0.593319 0.046428
vt 0.593193 0.076454
vt 0.646929 0.099209
vt 0.646929 0.042174
vt 0.646618 0.070543
vt 0.569634 0.114632
vt 0.587499 0.125614
vt 0.567847 0.098690
vt 0.566084 0.047675
vt 0.564430 0.076850
vt 0.623368 0.042882
vt 0.102060 0.724387
vt 0.074880 0.727311
vt 0.094803 0.697083
vt 0.064728 0.684304
vt 0.085284 0.669873
vt 0.065968 0.649865
vt 0.102060 0.656841
vt 0.081827 0.630483
vt 0.618025 0.134140
vt 0.331572 0.652241
vt 0.363174 0.674154
vt 0.337572 0.678758
vt 0.360653 0.643222
vt 0.390839 0.670520
vt 0.341256 0.703061
vt 0.386953 0.696145
vt 0.364684 0.700584
vt 0.309284 0.642576
vt 0.347446 0.617089
vt 0.323676 0.632405
vt 0.374992 0.611045
vt 0.537302 0.041560
vt 0.554724 0.012621
vt 0.541035 0.072878
vt 0.549460 0.095497
vt 0.556020 0.117878
vt 0.322667 0.725213
vt 0.768523 0.367750
vt 0.296394 0.711820
vt 0.096356 0.747095
vt 0.839577 0.451180
vt 0.779808 0.451180
vt 0.548252 0.609851
vt 0.129851 0.420561
vt 0.387675 0.742149
vt 0.081671 0.935837
vt 0.636154 0.616475
vt 0.288556 0.418634
vt 0.651269 0.696373
vt 0.637908 0.018350
vt 0.390839 0.636810
vn -0.4705 -0.8483 -0.2429
vn -0.0655 -0.9952 -0.0732
vn -0.5979 -0.7887 -0.1432
vn 0.2735 -0.9163 -0.2925
vn -0.1470 -0.9346 -0.3240
vn -0.4999 -0.8257 0.2613
vn 0.4486 -0.8086 0.3807
vn 0.1500 -0.9314 0.3315
vn -0.7294 -0.6567 -0.1917
vn -0.8161 -0.5715 0.0859
vn -0.3121 -0.7787 -0.5443
vn 0.2018 -0.6486 -0.7339
vn -0.1335 -0.7617 -0.6341
vn 0.6738 -0.5137 -0.5311
vn 0.7522 -0.6519 -0.0956
vn 0.3644 -0.9109 0.1934
vn 0.7433 -0.6579 0.1212
vn 0.5616 -0.6511 0.5105
vn 0.3880 -0.6570 0.6464
vn 0.1264 -0.6487 0.7504
vn -0.4630 -0.5619 0.6855
vn -0.7576 -0.3615 0.5435
vn -0.8287 -0.5486 0.1114
vn -0.7651 -0.6304 -0.1313
vn -0.7608 0.0546 0.6467
vn -0.9696 -0.2296 0.0844
vn -0.7998 -0.0602 0.5972
vn -0.9576 0.2757 0.0833
vn -0.9413 -0.3275 -0.0817
vn -0.8697 -0.3353 0.3623
vn -0.8305 -0.5539 -0.0593
vn -0.7623 -0.6333 -0.1338
vn -0.3180 0.0390 0.9473
vn -0.2863 0.1055 0.9523
vn -0.6973 0.4449 0.5620
vn -0.7998 0.5975 -0.0579
vn -0.8483 0.5196 -0.1017
vn -0.6736 0.7085 -0.2104
vn -0.9249 0.3801 -0.0044
vn -0.8096 -0.2779 -0.5171
vn -0.7496 -0.5894 -0.3010
vn -0.7086 -0.1237 0.6947
vn -0.5432 0.1352 0.8286
vn 0.7943 -0.5287 -0.2992
vn 0.9479 -0.3147 0.0498
vn 0.8015 -0.5914 0.0885
vn 0.8087 0.3359 -0.4828
vn 0.8129 -0.3103 -0.4929
vn 0.7307 -0.6193 0.2872
vn 0.9585 0.2839 -0.0240
vn 0.8583 -0.3708 0.3548
vn 0.4965 -0.1891 -0.8472
vn 0.6728 -0.1838 -0.7166
vn 0.4294 0.1671 -0.8875
vn 0.3726 0.5342 -0.7588
vn 0.5301 0.6876 -0.4961
vn 0.5510 0.7515 0.3628
vn 0.8732 0.3040 0.3808
vn 0.3755 0.6309 0.6790
vn 0.4150 0.2182 0.8833
vn 0.5230 -0.2891 0.8018
vn 0.5042 -0.6022 0.6190
vn 0.6381 -0.6982 0.3246
vn 0.2675 -0.3974 0.8778
vn -0.2554 0.1425 0.9563
vn 0.0766 -0.1967 0.9775
vn -0.0548 0.1883 0.9806
vn 0.0476 -0.1547 0.9868
vn -0.5208 -0.0114 0.8536
vn -0.4499 0.1557 0.8794
vn -0.4467 0.3369 0.8289
vn -0.3577 0.4159 0.8361
vn -0.3525 0.1178 0.9284
vn -0.3802 0.1915 0.9049
vn 0.2269 0.8395 -0.4937
vn -0.0066 0.9995 0.0323
vn 0.2467 0.9691 0.0021
vn -0.4335 0.8470 -0.3078
vn 0.0482 0.9163 -0.3977
vn 0.2163 0.8844 0.4136
vn -0.3162 0.6797 0.6618
vn -0.1121 0.8271 0.5507
vn 0.3122 0.5886 -0.7457
vn -0.2305 0.7636 -0.6032
vn 0.1666 0.7150 -0.6790
vn -0.4538 0.8893 0.0570
vn 0.0620 0.5496 0.8331
vn 0.6489 0.7608 0.0109
vn -0.2317 -0.5890 -0.7742
vn 0.2344 -0.1780 -0.9557
vn 0.0481 -0.3663 -0.9292
vn -0.1812 -0.2687 -0.9460
vn 0.2802 0.2138 -0.9358
vn 0.3227 -0.2286 -0.9185
vn 0.3624 0.1792 -0.9146
vn 0.3551 -0.0697 -0.9322
vn -0.7988 0.2947 -0.5245
vn -0.2099 0.3511 -0.9125
usemtl Material.001
s 1
f 45/1/1 49/2/2 48/3/3
f 47/4/4 49/2/2 46/5/5
f 49/2/2 51/6/6 48/3/3
f 49/2/2 53/7/7 52/8/8
f 6/9/9 45/10/1 36/11/10
f 26/12/11 46/13/5 45/14/1
f 24/15/12 46/13/5 25/16/13
f 2/17/14 47/4/4 24/18/12
f 17/19/15 50/20/16 47/4/4
f 16/21/17 53/7/7 50/20/16
f 53/7/7 4/22/18 14/23/19
f 53/7/7 13/24/20 52/8/8
f 51/6/6 13/24/20 12/25/21
f 51/26/6 8/27/22 38/28/23
f 48/29/3 38/28/23 37/30/24
f 36/11/10 48/29/3 37/30/24
f 54/31/25 58/32/26 57/33/27
f 55/34/28 59/35/29 58/32/26
f 58/32/26 60/36/30 57/33/27
f 58/32/26 62/37/31 61/38/32
f 7/39/33 54/40/25 44/41/34
f 39/42/35 55/34/28 54/31/25
f 41/43/36 55/44/28 40/45/37
f 5/46/38 56/47/39 41/43/36
f 56/48/39 34/49/40 59/35/29
f 59/35/29 35/50/41 62/37/31
f 62/37/31 6/9/9 36/11/10
f 61/38/32 36/11/10 37/30/24
f 61/38/32 38/28/23 60/36/30
f 60/36/30 8/27/22 42/51/42
f 57/33/27 42/51/42 43/52/43
f 44/41/34 57/53/27 43/54/43
f 63/55/44 67/56/45 66/57/46
f 65/58/47 67/59/45 64/60/48
f 67/56/45 69/61/49 66/57/46
f 68/62/50 70/63/51 67/59/45
f 2/64/14 63/65/44 17/66/15
f 28/67/52 63/68/44 29/69/53
f 27/70/54 64/71/48 28/67/52
f 1/72/55 65/58/47 27/73/54
f 30/74/56 68/62/50 65/58/47
f 68/62/50 32/75/57 71/76/58
f 71/77/58 3/78/59 18/79/60
f 70/63/51 18/80/60 19/81/61
f 70/82/51 20/83/62 69/61/49
f 69/61/49 4/22/18 15/84/63
f 66/57/46 15/84/63 16/21/17
f 17/19/15 66/57/46 16/21/17
f 72/85/64 76/86/65 75/87/66
f 74/88/67 76/86/65 73/89/68
f 76/86/65 78/90/69 75/87/66
f 77/91/70 79/92/71 76/86/65
f 4/22/18 72/93/64 14/23/19
f 20/83/62 73/94/68 72/93/64
f 19/95/61 74/88/67 73/89/68
f 3/78/59 74/88/67 18/79/60
f 74/88/67 10/96/72 77/91/70
f 77/97/70 11/98/73 80/99/74
f 80/100/74 7/39/33 44/41/34
f 79/92/71 44/41/34 43/54/43
f 79/92/71 42/101/42 78/90/69
f 78/102/69 8/27/22 12/103/21
f 75/104/66 12/25/21 13/24/20
f 72/93/64 13/24/20 14/23/19
f 81/105/75 85/106/76 84/107/77
f 83/108/78 85/106/76 82/109/79
f 85/106/76 87/110/80 84/107/77
f 85/106/76 89/111/81 88/112/82
f 1/113/55 81/105/75 30/114/56
f 23/115/83 82/109/79 81/105/75
f 21/116/84 82/109/79 22/117/85
f 5/46/38 83/108/78 21/116/84
f 83/108/78 40/45/37 86/118/86
f 40/45/37 89/111/81 86/118/86
f 89/119/81 7/39/33 11/120/73
f 88/121/82 11/120/73 10/96/72
f 88/121/82 9/122/87 87/123/80
f 87/123/80 3/78/59 32/124/57
f 84/125/77 32/124/57 31/126/88
f 30/114/56 84/107/77 31/127/88
f 90/128/89 94/129/90 93/130/91
f 91/131/92 95/132/93 94/129/90
f 94/129/90 96/133/94 93/130/91
f 94/129/90 98/134/95 97/135/96
f 6/136/9 90/128/89 26/12/11
f 34/137/40 90/128/89 35/138/41
f 33/139/97 91/131/92 34/137/40
f 5/46/38 92/140/98 33/141/97
f 21/116/84 95/142/93 92/140/98
f 95/142/93 23/115/83 98/143/95
f 98/143/95 1/113/55 27/144/54
f 98/134/95 28/67/52 97/135/96
f 97/135/96 29/69/53 96/133/94
f 96/133/94 2/145/14 24/15/12
f 93/130/91 24/15/12 25/16/13
f 26/12/11 93/130/91 25/16/13
f 45/1/1 46/5/5 49/2/2
f 47/4/4 50/20/16 49/2/2
f 49/2/2 52/8/8 51/6/6
f 49/2/2 50/20/16 53/7/7
f 6/9/9 26/146/11 45/10/1
f 26/12/11 25/16/13 46/13/5
f 24/15/12 47/147/4 46/13/5
f 2/17/14 17/19/15 47/4/4
f 17/19/15 16/21/17 50/20/16
f 16/21/17 15/84/63 53/7/7
f 53/7/7 15/84/63 4/22/18
f 53/7/7 14/23/19 13/24/20
f 51/6/6 52/8/8 13/24/20
f 51/26/6 12/103/21 8/27/22
f 48/29/3 51/26/6 38/28/23
f 36/11/10 45/10/1 48/29/3
f 54/31/25 55/34/28 58/32/26
f 55/34/28 56/48/39 59/35/29
f 58/32/26 61/38/32 60/36/30
f 58/32/26 59/35/29 62/37/31
f 7/39/33 39/148/35 54/40/25
f 39/42/35 40/149/37 55/34/28
f 41/43/36 56/47/39 55/44/28
f 5/46/38 33/141/97 56/47/39
f 56/48/39 33/150/97 34/49/40
f 59/35/29 34/49/40 35/50/41
f 62/37/31 35/50/41 6/9/9
f 61/38/32 62/37/31 36/11/10
f 61/38/32 37/30/24 38/28/23
f 60/36/30 38/28/23 8/27/22
f 57/33/27 60/36/30 42/51/42
f 44/41/34 54/40/25 57/53/27
f 63/55/44 64/151/48 67/56/45
f 65/58/47 68/62/50 67/59/45
f 67/56/45 70/82/51 69/61/49
f 68/62/50 71/76/58 70/63/51
f 2/64/14 29/152/53 63/65/44
f 28/67/52 64/71/48 63/68/44
f 27/70/54 65/153/47 64/71/48
f 1/72/55 30/74/56 65/58/47
f 30/74/56 31/154/88 68/62/50
f 68/62/50 31/154/88 32/75/57
f 71/77/58 32/124/57 3/78/59
f 70/63/51 71/76/58 18/80/60
f 70/82/51 19/155/61 20/83/62
f 69/61/49 20/83/62 4/22/18
f 66/57/46 69/61/49 15/84/63
f 17/19/15 63/55/44 66/57/46
f 72/85/64 73/89/68 76/86/65
f 74/88/67 77/91/70 76/86/65
f 76/86/65 79/92/71 78/90/69
f 77/91/70 80/100/74 79/92/71
f 4/22/18 20/83/62 72/93/64
f 20/83/62 19/155/61 73/94/68
f 19/95/61 18/79/60 74/88/67
f 3/78/59 9/122/87 74/88/67
f 74/88/67 9/122/87 10/96/72
f 77/97/70 10/156/72 11/98/73
f 80/100/74 11/120/73 7/39/33
f 79/92/71 80/100/74 44/41/34
f 79/92/71 43/54/43 42/101/42
f 78/102/69 42/51/42 8/27/22
f 75/104/66 78/157/69 12/25/21
f 72/93/64 75/104/66 13/24/20
f 81/105/75 82/109/79 85/106/76
f 83/108/78 86/118/86 85/106/76
f 85/106/76 88/112/82 87/110/80
f 85/106/76 86/118/86 89/111/81
f 1/113/55 23/115/83 81/105/75
f 23/115/83 22/117/85 82/109/79
f 21/116/84 83/108/78 82/109/79
f 5/46/38 41/43/36 83/108/78
f 83/108/78 41/43/36 40/45/37
f 40/45/37 39/158/35 89/111/81
f 89/119/81 39/148/35 7/39/33
f 88/121/82 89/119/81 11/120/73
f 88/121/82 10/96/72 9/122/87
f 87/123/80 9/122/87 3/78/59
f 84/125/77 87/123/80 32/124/57
f 30/114/56 81/105/75 84/107/77
f 90/128/89 91/131/92 94/129/90
f 91/131/92 92/159/98 95/132/93
f 94/129/90 97/135/96 96/133/94
f 94/129/90 95/132/93 98/134/95
f 6/136/9 35/138/41 90/128/89
f 34/137/40 91/131/92 90/128/89
f 33/139/97 92/159/98 91/131/92
f 5/46/38 21/116/84 92/140/98
f 21/116/84 22/117/85 95/142/93
f 95/142/93 22/117/85 23/115/83
f 98/143/95 23/115/83 1/113/55
f 98/134/95 27/70/54 28/67/52
f 97/135/96 28/67/52 29/69/53
f 96/133/94 29/69/53 2/145/14
f 93/130/91 96/133/94 24/15/12
f 26/12/11 90/128/89 93/130/91
