# Blender v3.6.1 OBJ File: 'Stairs.blend'
# www.blender.org
mtllib Stairs.mtl
o Leg_2
v 0.022423 -1.002346 -0.227500
v 0.022423 -1.002346 -0.207500
v -0.022577 -1.002346 -0.207500
v -0.022577 -1.002346 -0.227500
v 0.022423 0.997654 -0.227500
v -0.022577 0.997654 -0.227500
v -0.022577 0.997654 -0.207500
v 0.022423 0.997654 -0.207500
v 0.022423 -1.002346 0.207500
v 0.022423 -1.002346 0.227500
v -0.022577 -1.002346 0.227500
v -0.022577 -1.002346 0.207500
v 0.022423 0.997654 0.207500
v -0.022577 0.997654 0.207500
v -0.022577 0.997654 0.227500
v 0.022423 0.997654 0.227500
v -0.038736 -0.840975 0.217500
v -0.031895 -0.833457 0.217500
v -0.031895 -0.833457 -0.217500
v -0.038736 -0.840975 -0.217500
v 0.038582 -0.843718 -0.217500
v 0.031741 -0.851235 -0.217500
v 0.038582 -0.843718 0.217500
v 0.031741 -0.851235 0.217500
v -0.038715 -0.653682 0.217500
v -0.031875 -0.646164 0.217500
v -0.031875 -0.646164 -0.217500
v -0.038715 -0.653682 -0.217500
v 0.038602 -0.656425 -0.217500
v 0.031762 -0.663943 -0.217500
v 0.038602 -0.656425 0.217500
v 0.031762 -0.663943 0.217500
v -0.038695 -0.466390 0.217500
v -0.031854 -0.458872 0.217500
v -0.031854 -0.458873 -0.217500
v -0.038695 -0.466390 -0.217500
v 0.038623 -0.469133 -0.217500
v 0.031782 -0.476651 -0.217500
v 0.038623 -0.469133 0.217500
v 0.031782 -0.476650 0.217500
v -0.038674 -0.279098 0.217500
v -0.031834 -0.271580 0.217500
v -0.031834 -0.271580 -0.217500
v -0.038674 -0.279098 -0.217500
v 0.038643 -0.281841 -0.217500
v 0.031803 -0.289358 -0.217500
v 0.038643 -0.281841 0.217500
v 0.031803 -0.289358 0.217500
v -0.038653 -0.091805 0.217500
v -0.031813 -0.084288 0.217500
v -0.031813 -0.084288 -0.217500
v -0.038653 -0.091805 -0.217500
v 0.038664 -0.094549 -0.217500
v 0.031824 -0.102066 -0.217500
v 0.038664 -0.094549 0.217500
v 0.031824 -0.102066 0.217500
v -0.038633 0.095487 0.217500
v -0.031793 0.103004 0.217500
v -0.031793 0.103004 -0.217500
v -0.038633 0.095487 -0.217500
v 0.038684 0.092744 -0.217500
v 0.031844 0.085226 -0.217500
v 0.038684 0.092744 0.217500
v 0.031844 0.085226 0.217500
v -0.038612 0.282779 0.217500
v -0.031772 0.290297 0.217500
v -0.031772 0.290297 -0.217500
v -0.038612 0.282779 -0.217500
v 0.038705 0.280036 -0.217500
v 0.031865 0.272519 -0.217500
v 0.038705 0.280036 0.217500
v 0.031865 0.272519 0.217500
v -0.038592 0.470072 0.217500
v -0.031751 0.477589 0.217500
v -0.031751 0.477589 -0.217500
v -0.038592 0.470071 -0.217500
v 0.038726 0.467328 -0.217500
v 0.031885 0.459811 -0.217500
v 0.038726 0.467328 0.217500
v 0.031885 0.459811 0.217500
v -0.038571 0.657364 0.217500
v -0.031731 0.664882 0.217500
v -0.031731 0.664882 -0.217500
v -0.038571 0.657364 -0.217500
v 0.038746 0.654621 -0.217500
v 0.031906 0.647103 -0.217500
v 0.038746 0.654621 0.217500
v 0.031906 0.647103 0.217500
v -0.038551 0.844656 0.217500
v -0.031710 0.852173 0.217500
v -0.031710 0.852173 -0.217500
v -0.038551 0.844656 -0.217500
v 0.038767 0.841913 -0.217500
v 0.031926 0.834396 -0.217500
v 0.038767 0.841913 0.217500
v 0.031926 0.834396 0.217500
vt 0.362697 0.385784
vt 0.350696 0.366423
vt 0.323719 0.325196
vt 0.335719 0.344549
vt 0.189794 0.391439
vt 0.158755 0.342072
vt 0.143842 0.318903
vt 0.174871 0.368257
vt 0.055932 0.370146
vt 0.070216 0.389267
vt 0.098830 0.424473
vt 0.084557 0.405375
vt 0.339507 0.360944
vt 0.371986 0.403658
vt 0.390233 0.426782
vt 0.357786 0.384104
vt 0.470653 0.434195
vt 0.384341 0.434195
vt 0.384341 0.319112
vt 0.470653 0.319112
vt 0.250606 0.432783
vt 0.166148 0.432783
vt 0.166148 0.320173
vt 0.250606 0.320173
vt 0.147665 0.435696
vt 0.059102 0.435696
vt 0.059102 0.317611
vt 0.147665 0.317611
vt 0.270350 0.433664
vt 0.270350 0.319293
vt 0.356129 0.319293
vt 0.356129 0.433664
vt 0.490687 0.312811
vt 0.490687 0.942817
vt 0.018183 0.942817
vt 0.018183 0.312812
vt 0.499117 0.301572
vt 0.499117 0.953356
vt 0.010279 0.953356
vt 0.010279 0.301572
vt 0.470653 0.434195
vt 0.384341 0.434195
vt 0.384341 0.319112
vt 0.470653 0.319112
vt 0.250606 0.432783
vt 0.166148 0.432783
vt 0.166148 0.320173
vt 0.250606 0.320173
vt 0.147665 0.435696
vt 0.059102 0.435696
vt 0.059102 0.317611
vt 0.147665 0.317611
vt 0.270350 0.433664
vt 0.270350 0.319293
vt 0.356129 0.319293
vt 0.356129 0.433664
vt 0.490687 0.312811
vt 0.490687 0.942817
vt 0.018183 0.942817
vt 0.018183 0.312812
vt 0.499117 0.301572
vt 0.499117 0.953356
vt 0.010279 0.953356
vt 0.010279 0.301572
vt 0.470653 0.434195
vt 0.384341 0.434195
vt 0.384341 0.319112
vt 0.470653 0.319112
vt 0.250606 0.432783
vt 0.166148 0.432783
vt 0.166148 0.320173
vt 0.250606 0.320173
vt 0.147665 0.435696
vt 0.059102 0.435696
vt 0.059102 0.317611
vt 0.147665 0.317611
vt 0.270350 0.433664
vt 0.270350 0.319293
vt 0.356129 0.319293
vt 0.356129 0.433664
vt 0.490687 0.312811
vt 0.490687 0.942817
vt 0.018183 0.942817
vt 0.018183 0.312812
vt 0.499117 0.301572
vt 0.499117 0.953356
vt 0.010279 0.953356
vt 0.010279 0.301572
vt 0.470653 0.434195
vt 0.384341 0.434195
vt 0.384341 0.319112
vt 0.470653 0.319112
vt 0.250606 0.432783
vt 0.166148 0.432783
vt 0.166148 0.320173
vt 0.250606 0.320173
vt 0.147665 0.435696
vt 0.059102 0.435696
vt 0.059102 0.317611
vt 0.147665 0.317611
vt 0.270350 0.433664
vt 0.270350 0.319293
vt 0.356129 0.319293
vt 0.356129 0.433664
vt 0.490687 0.312811
vt 0.490687 0.942817
vt 0.018183 0.942817
vt 0.018183 0.312812
vt 0.499117 0.301572
vt 0.499117 0.953356
vt 0.010279 0.953356
vt 0.010279 0.301572
vt 0.470653 0.434195
vt 0.384341 0.434195
vt 0.384341 0.319112
vt 0.470653 0.319112
vt 0.250606 0.432783
vt 0.166148 0.432783
vt 0.166148 0.320173
vt 0.250606 0.320173
vt 0.147665 0.435696
vt 0.059102 0.435696
vt 0.059102 0.317611
vt 0.147665 0.317611
vt 0.270350 0.433664
vt 0.270350 0.319293
vt 0.356129 0.319293
vt 0.356129 0.433664
vt 0.490687 0.312811
vt 0.490687 0.942817
vt 0.018183 0.942817
vt 0.018183 0.312812
vt 0.499117 0.301572
vt 0.499117 0.953356
vt 0.010279 0.953356
vt 0.010279 0.301572
vt 0.470653 0.434195
vt 0.384341 0.434195
vt 0.384341 0.319112
vt 0.470653 0.319112
vt 0.250606 0.432783
vt 0.166148 0.432783
vt 0.166148 0.320173
vt 0.250606 0.320173
vt 0.147665 0.435696
vt 0.059102 0.435696
vt 0.059102 0.317611
vt 0.147665 0.317611
vt 0.270350 0.433664
vt 0.270350 0.319293
vt 0.356129 0.319293
vt 0.356129 0.433664
vt 0.490687 0.312811
vt 0.490687 0.942817
vt 0.018183 0.942817
vt 0.018183 0.312812
vt 0.499117 0.301572
vt 0.499117 0.953356
vt 0.010279 0.953356
vt 0.010279 0.301572
vt 0.470653 0.434195
vt 0.384341 0.434195
vt 0.384341 0.319112
vt 0.470653 0.319112
vt 0.250606 0.432783
vt 0.166148 0.432783
vt 0.166148 0.320173
vt 0.250606 0.320173
vt 0.147665 0.435696
vt 0.059102 0.435696
vt 0.059102 0.317611
vt 0.147665 0.317611
vt 0.270350 0.433664
vt 0.270350 0.319293
vt 0.356129 0.319293
vt 0.356129 0.433664
vt 0.490687 0.312811
vt 0.490687 0.942817
vt 0.018183 0.942817
vt 0.018183 0.312812
vt 0.499117 0.301572
vt 0.499117 0.953356
vt 0.010279 0.953356
vt 0.010279 0.301572
vt 0.470653 0.434195
vt 0.384341 0.434195
vt 0.384341 0.319112
vt 0.470653 0.319112
vt 0.250606 0.432783
vt 0.166148 0.432783
vt 0.166148 0.320173
vt 0.250606 0.320173
vt 0.147665 0.435696
vt 0.059102 0.435696
vt 0.059102 0.317611
vt 0.147665 0.317611
vt 0.270350 0.433664
vt 0.270350 0.319293
vt 0.356129 0.319293
vt 0.356129 0.433664
vt 0.490687 0.312811
vt 0.490687 0.942817
vt 0.018183 0.942817
vt 0.018183 0.312812
vt 0.499117 0.301572
vt 0.499117 0.953356
vt 0.010279 0.953356
vt 0.010279 0.301572
vt 0.470653 0.434195
vt 0.384341 0.434195
vt 0.384341 0.319112
vt 0.470653 0.319112
vt 0.250606 0.432783
vt 0.166148 0.432783
vt 0.166148 0.320173
vt 0.250606 0.320173
vt 0.147665 0.435696
vt 0.059102 0.435696
vt 0.059102 0.317611
vt 0.147665 0.317611
vt 0.270350 0.433664
vt 0.270350 0.319293
vt 0.356129 0.319293
vt 0.356129 0.433664
vt 0.490687 0.312811
vt 0.490687 0.942817
vt 0.018183 0.942817
vt 0.018183 0.312812
vt 0.499117 0.301572
vt 0.499117 0.953356
vt 0.010279 0.953356
vt 0.010279 0.301572
vt 0.470653 0.434195
vt 0.384341 0.434195
vt 0.384341 0.319112
vt 0.470653 0.319112
vt 0.250606 0.432783
vt 0.166148 0.432783
vt 0.166148 0.320173
vt 0.250606 0.320173
vt 0.147665 0.435696
vt 0.059102 0.435696
vt 0.059102 0.317611
vt 0.147665 0.317611
vt 0.270350 0.433664
vt 0.270350 0.319293
vt 0.356129 0.319293
vt 0.356129 0.433664
vt 0.490687 0.312811
vt 0.490687 0.942817
vt 0.018183 0.942817
vt 0.018183 0.312812
vt 0.499117 0.301572
vt 0.499117 0.953356
vt 0.010279 0.953356
vt 0.010279 0.301572
vn 0.0000 -1.0000 0.0000
vn 0.0000 1.0000 0.0000
vn 1.0000 0.0000 0.0000
vn 0.0000 0.0000 1.0000
vn -1.0000 -0.0000 0.0000
vn 0.0000 -0.0000 -1.0000
vn -0.7396 0.6730 0.0000
vn 0.7396 -0.6730 0.0000
vn -0.1441 -0.9896 0.0000
vn 0.1441 0.9896 0.0000
vn -0.7397 0.6730 0.0000
vn 0.7397 -0.6730 0.0000
vn 0.7396 -0.6731 0.0000
usemtl Material.001
s 1
f 1/1/1 2/2/1 3/3/1 4/4/1
f 5/5/2 6/6/2 7/7/2 8/8/2
f 1/1/3 5/5/3 8/8/3 2/2/3
f 2/2/4 8/8/4 7/7/4 3/3/4
f 3/3/5 7/7/5 6/6/5 4/4/5
f 5/5/6 1/1/6 4/4/6 6/6/6
f 9/9/1 10/10/1 11/11/1 12/12/1
f 13/13/2 14/14/2 15/15/2 16/16/2
f 9/9/3 13/13/3 16/16/3 10/10/3
f 10/10/4 16/16/4 15/15/4 11/11/4
f 11/11/5 15/15/5 14/14/5 12/12/5
f 13/13/6 9/9/6 12/12/6 14/14/6
f 17/17/7 18/18/7 19/19/7 20/20/7
f 20/21/6 19/22/6 21/23/6 22/24/6
f 22/25/8 21/26/8 23/27/8 24/28/8
f 24/29/4 23/30/4 18/31/4 17/32/4
f 20/33/9 22/34/9 24/35/9 17/36/9
f 21/37/10 19/38/10 18/39/10 23/40/10
f 25/41/11 26/42/11 27/43/11 28/44/11
f 28/45/6 27/46/6 29/47/6 30/48/6
f 30/49/12 29/50/12 31/51/12 32/52/12
f 32/53/4 31/54/4 26/55/4 25/56/4
f 28/57/9 30/58/9 32/59/9 25/60/9
f 29/61/10 27/62/10 26/63/10 31/64/10
f 33/65/7 34/66/7 35/67/7 36/68/7
f 36/69/6 35/70/6 37/71/6 38/72/6
f 38/73/8 37/74/8 39/75/8 40/76/8
f 40/77/4 39/78/4 34/79/4 33/80/4
f 36/81/9 38/82/9 40/83/9 33/84/9
f 37/85/10 35/86/10 34/87/10 39/88/10
f 41/89/11 42/90/11 43/91/11 44/92/11
f 44/93/6 43/94/6 45/95/6 46/96/6
f 46/97/8 45/98/8 47/99/8 48/100/8
f 48/101/4 47/102/4 42/103/4 41/104/4
f 44/105/9 46/106/9 48/107/9 41/108/9
f 45/109/10 43/110/10 42/111/10 47/112/10
f 49/113/11 50/114/11 51/115/11 52/116/11
f 52/117/6 51/118/6 53/119/6 54/120/6
f 54/121/12 53/122/12 55/123/12 56/124/12
f 56/125/4 55/126/4 50/127/4 49/128/4
f 52/129/9 54/130/9 56/131/9 49/132/9
f 53/133/10 51/134/10 50/135/10 55/136/10
f 57/137/11 58/138/11 59/139/11 60/140/11
f 60/141/6 59/142/6 61/143/6 62/144/6
f 62/145/12 61/146/12 63/147/12 64/148/12
f 64/149/4 63/150/4 58/151/4 57/152/4
f 60/153/9 62/154/9 64/155/9 57/156/9
f 61/157/10 59/158/10 58/159/10 63/160/10
f 65/161/11 66/162/11 67/163/11 68/164/11
f 68/165/6 67/166/6 69/167/6 70/168/6
f 70/169/8 69/170/8 71/171/8 72/172/8
f 72/173/4 71/174/4 66/175/4 65/176/4
f 68/177/9 70/178/9 72/179/9 65/180/9
f 69/181/10 67/182/10 66/183/10 71/184/10
f 73/185/7 74/186/7 75/187/7 76/188/7
f 76/189/6 75/190/6 77/191/6 78/192/6
f 78/193/13 77/194/13 79/195/13 80/196/13
f 80/197/4 79/198/4 74/199/4 73/200/4
f 76/201/9 78/202/9 80/203/9 73/204/9
f 77/205/10 75/206/10 74/207/10 79/208/10
f 81/209/11 82/210/11 83/211/11 84/212/11
f 84/213/6 83/214/6 85/215/6 86/216/6
f 86/217/12 85/218/12 87/219/12 88/220/12
f 88/221/4 87/222/4 82/223/4 81/224/4
f 84/225/9 86/226/9 88/227/9 81/228/9
f 85/229/10 83/230/10 82/231/10 87/232/10
f 89/233/7 90/234/7 91/235/7 92/236/7
f 92/237/6 91/238/6 93/239/6 94/240/6
f 94/241/13 93/242/13 95/243/13 96/244/13
f 96/245/4 95/246/4 90/247/4 89/248/4
f 92/249/9 94/250/9 96/251/9 89/252/9
f 93/253/10 91/254/10 90/255/10 95/256/10
